<?xml version="1.0" encoding="UTF-8" standalone="no"?>
<!-- Created with Inkscape (http://www.inkscape.org/) -->

<svg
   width="39.243946mm"
   height="33.990128mm"
   viewBox="0 0 39.243946 33.990128"
   version="1.1"
   id="svg2085"
   inkscape:version="1.1.2 (0a00cf5339, 2022-02-04)"
   sodipodi:docname="Tumbleweed-Drawing.svg"
   xmlns:inkscape="http://www.inkscape.org/namespaces/inkscape"
   xmlns:sodipodi="http://sodipodi.sourceforge.net/DTD/sodipodi-0.dtd"
   xmlns="http://www.w3.org/2000/svg"
   xmlns:svg="http://www.w3.org/2000/svg">
  <sodipodi:namedview
     id="namedview2087"
     pagecolor="#ffffff"
     bordercolor="#666666"
     borderopacity="1.0"
     inkscape:pageshadow="2"
     inkscape:pageopacity="0.0"
     inkscape:pagecheckerboard="0"
     inkscape:document-units="mm"
     showgrid="false"
     fit-margin-top="0"
     fit-margin-left="0"
     fit-margin-right="0"
     fit-margin-bottom="0"
     inkscape:zoom="0.99150695"
     inkscape:cx="129.09642"
     inkscape:cy="92.28377"
     inkscape:window-width="1920"
     inkscape:window-height="978"
     inkscape:window-x="0"
     inkscape:window-y="39"
     inkscape:window-maximized="1"
     inkscape:current-layer="layer1" />
  <defs
     id="defs2082" />
  <g
     inkscape:label="Layer 1"
     inkscape:groupmode="layer"
     id="layer1"
     transform="translate(-70.775864,-93.814537)">
    <g
       id="g2589">
      <path
         style="fill:#d45500;stroke-width:0.264583"
         d="m 84.705244,127.49696 c -0.7451,-0.14505 -1.16917,-0.67193 -1.38323,-1.71859 -0.22712,-1.11048 -1.23637,-1.40441 -3.01183,-0.87716 -1.18665,0.3524 -1.27552,0.34695 -1.19627,-0.0733 0.0587,-0.31142 0.58361,-0.57754 1.67131,-0.84737 l 1.5857,-0.39336 -2.77812,-0.19697 c -1.52797,-0.10833 -3.5818,-0.1276 -4.56406,-0.0428 -2.03609,0.17576 -2.30239,-0.11545 -0.74698,-0.81684 1.28968,-0.58157 2.73635,-1.99311 2.04271,-1.99311 -0.89402,0 -2.43794,-1.0294 -3.63348,-2.4226 -1.40934,-1.64234 -1.82944,-2.35794 -1.82944,-3.11626 0,-0.65751 0.44627,-0.7036 1.09838,-0.11344 0.45651,0.41313 0.47578,0.36868 0.41771,-0.96385 -0.0403,-0.92588 0.0507,-1.43626 0.26985,-1.5135 0.19718,-0.0695 0.33073,0.10981 0.33073,0.44399 0,0.78805 0.69854,1.76282 1.71225,2.38933 1.43581,0.88738 1.67197,0.59874 0.40441,-0.49429 -1.14365,-0.98618 -1.19062,-1.08439 -1.19062,-2.48898 0,-1.29653 -0.0816,-1.51715 -0.71995,-1.94618 -1.15624,-0.7771 -1.63336,-1.91444 -1.41473,-3.37236 0.21683,-1.44592 0.65362,-1.50028 1.12756,-0.14032 0.30402,0.87238 0.31635,0.83925 0.33073,-0.88857 0.0111,-1.33409 0.17499,-2.11504 0.63854,-3.04271 0.34298,-0.68638 0.70719,-1.59432 0.80934,-2.01763 0.22686,-0.940067 1.76957,-2.537633 2.45048,-2.537633 0.27551,0 1.11916,-0.70708 1.89414,-1.5875 0.76856,-0.87313 1.56895,-1.5875 1.77865,-1.5875 0.54482,0 0.47091,0.46258 -0.12485,0.78142 -0.57218,0.30622 -1.53245,2.5674 -1.21564,2.8625 0.11369,0.10589 0.26133,0.0393 0.32809,-0.14797 0.25276,-0.70909 1.49225,-1.94391 2.60702,-2.59721 0.85596,-0.50163 1.72863,-0.73043 3.3493,-0.87815 1.20545,-0.10987 2.46407,-0.34552 2.79694,-0.52367 0.33287,-0.17814 0.86697,-0.27815 1.18688,-0.22223 0.53348,0.0932 0.51595,0.12903 -0.2116,0.4319 -0.85909,0.35764 -1.72028,1.04554 -1.72028,1.37412 0,0.223 1.71289,-0.7352 3.14798,-1.76101 0.49447,-0.35344 1.1645,-0.64262 1.48896,-0.64262 0.59449,0 1.38603,0.67981 1.11136,0.95448 -0.14339,0.14339 0.73199,1.16219 0.99858,1.16219 0.0728,0 0.13229,-0.29766 0.13229,-0.66146 0,-0.389 0.15182,-0.66146 0.36857,-0.66146 0.20271,0 0.4371,-0.17859 0.52086,-0.39688 0.10421,-0.27156 0.52891,-0.39687 1.34512,-0.39687 0.99098,0 1.2687,0.11579 1.64116,0.68423 0.24658,0.37633 0.51765,1.11069 0.60237,1.63192 0.0847,0.52122 0.3322,1.00659 0.54996,1.07858 0.335026,0.11077 0.341686,0.0652 0.0433,-0.29628 -0.19392,-0.23496 -0.30704,-0.64128 -0.25138,-0.90293 0.0856,-0.40265 0.23126,-0.33934 0.947886,0.41215 0.6871,0.72052 0.84828,0.79533 0.85511,0.39687 0.008,-0.46237 0.0321,-0.46015 0.41537,0.0382 0.2778,0.36123 0.35891,0.83897 0.25559,1.50538 -0.14946,0.96401 0.16959,1.560966 0.52604,0.98423 0.13012,-0.21054 0.24994,-0.19252 0.41111,0.0618 0.15414,0.243266 0.22876,0.0818 0.23151,-0.50092 0.003,-0.59403 0.12932,-0.8599 0.40922,-0.8599 0.41741,0 0.49441,0.13979 0.77111,1.39989 0.23533,1.071713 0.5977,0.659003 0.81618,-0.92955 l 0.18996,-1.38116 0.51002,1.08365 c 0.28051,0.596 0.80149,1.357466 1.15774,1.692146 l 0.64773,0.608517 v -0.597337 c 0,-1.031996 0.64084,-0.45003 0.87042,0.790477 0.30111,1.62699 0.0673,4.0115 -0.47451,4.83834 -0.41763,0.6374 -0.42099,0.77294 -0.0418,1.68728 0.38209,0.92125 0.41335,0.94196 0.42598,0.28222 0.007,-0.39159 0.15076,-0.79674 0.31835,-0.90032 0.5007,-0.30944 1.01827,0.70492 1.01721,1.99361 -10e-4,1.33981 -0.59382,2.50735 -2.01879,3.97661 -1.32648,1.36772 -1.18785,2.42849 0.22208,1.69938 0.82517,-0.42671 1.53312,-1.75374 1.53312,-2.87379 0,-0.36848 0.11906,-0.66996 0.26458,-0.66996 0.14552,0 0.26458,0.67787 0.26458,1.50638 0,1.47868 -0.0268,1.5323 -1.45521,2.91586 -0.80036,0.77522 -1.4552,1.50034 -1.4552,1.6114 0,0.11105 -0.41975,0.85274 -0.93278,1.6482 -0.51303,0.79546 -1.00516,1.8969 -1.09362,2.44765 -0.1987,1.23708 -0.81614,2.04406 -2.36241,3.08762 -1.9728,1.33144 -2.56206,1.55303 -5.025696,1.88996 -1.89459,0.2591 -2.5494,0.4708 -3.32357,1.07447 l -0.96411,0.75179 -4.06297,-0.036 c -2.23463,-0.0198 -4.32221,-0.0865 -4.63907,-0.14817 z"
         id="path2317" />
      <path
         style="fill:#803300;stroke-width:0.264583"
         d="m 85.324418,127.59254 c -1.442675,-0.22311 -1.941127,-0.67206 -1.941127,-1.74833 0,-0.78766 -0.10174,-0.9093 -0.958307,-1.14581 -0.717552,-0.19813 -1.232703,-0.16898 -2.050521,0.116 -1.38813,0.48373 -1.632813,0.48342 -1.230316,-0.002 0.177961,-0.21443 0.758087,-0.46295 1.289167,-0.55227 1.559952,-0.26235 1.926713,-0.40785 1.821757,-0.72272 -0.06608,-0.19824 -0.897472,-0.27177 -2.499465,-0.22105 -1.511617,0.0478 -2.465761,-0.0297 -2.576835,-0.20941 -0.122615,-0.1984 0.457517,-0.25062 1.903028,-0.17132 2.062783,0.11316 3.109421,-0.10357 2.454602,-0.50827 -0.173736,-0.10737 -0.448385,-0.0627 -0.610331,0.0992 -0.161945,0.16195 -0.419462,0.29066 -0.572259,0.28603 -0.152796,-0.005 -0.04928,-0.18133 0.230038,-0.39267 0.316684,-0.23962 0.51947,-0.73443 0.538716,-1.31451 0.0308,-0.9282 -0.348982,-1.3453 -0.425407,-0.46722 -0.02217,0.25467 -0.05306,0.6145 -0.06865,0.79963 -0.0271,0.32176 -1.403856,1.3778 -1.800981,1.38144 -0.104573,0.001 -0.132929,-0.14733 -0.06301,-0.32953 0.06992,-0.1822 -0.131782,-0.49296 -0.44822,-0.69058 -0.515098,-0.32168 -0.625627,-0.29392 -1.055584,0.26513 -0.72074,0.93714 -0.589189,0.3425 0.172069,-0.77779 0.411973,-0.60627 0.551022,-1.01496 0.366275,-1.07655 -0.163792,-0.0546 -0.39852,0.0641 -0.521619,0.26372 -0.613067,0.99424 -0.981588,1.39769 -1.83165,2.00523 l -0.926042,0.66184 0.79375,-0.1679 c 0.58297,-0.12331 0.68836,-0.0966 0.396875,0.10067 -0.218281,0.14772 -0.873125,0.26667 -1.455208,0.26435 l -1.058333,-0.004 1.314728,-0.64384 c 1.189806,-0.58266 2.235979,-1.53605 2.251263,-2.05159 0.0032,-0.10911 -0.33344,-0.19841 -0.748169,-0.19841 -0.856614,0 -2.950114,-1.39569 -2.950114,-1.96677 0,-0.20677 -0.425926,-0.72704 -0.946502,-1.15614 -0.878941,-0.72452 -1.663779,-2.54062 -1.20876,-2.79708 0.09399,-0.053 0.575172,0.30485 1.069291,0.79516 0.49412,0.49031 0.785823,0.89148 0.648229,0.89148 -0.137593,0 -0.39106,-0.14089 -0.56326,-0.31309 -0.1722,-0.1722 -0.395691,-0.23049 -0.496649,-0.12953 -0.100957,0.10095 0.160477,0.54265 0.580965,0.98154 0.768325,0.80196 2.077286,1.33565 2.713811,1.10648 0.596202,-0.21465 0.191485,-0.67042 -0.856408,-0.96443 -0.556917,-0.15625 -1.00158,-0.37123 -0.988139,-0.47773 0.01344,-0.1065 -0.148983,-0.60869 -0.360942,-1.11598 -0.431361,-1.0324 -0.509311,-2.41902 -0.148522,-2.642 0.374989,-0.23176 0.549022,0.54359 0.205486,0.91548 -0.170529,0.1846 -0.186489,0.26723 -0.03547,0.18361 0.151023,-0.0836 0.425632,0.18921 0.610241,0.60627 0.381772,0.86248 2.441205,2.00033 3.137129,1.73328 0.340087,-0.1305 0.146517,-0.3604 -0.85751,-1.01842 -1.008754,-0.66111 -1.364202,-1.0849 -1.600471,-1.90819 -0.167048,-0.58208 -0.233538,-1.1774 -0.147755,-1.32292 0.309422,-0.5249 0.293344,-1.19068 -0.02882,-1.19344 -0.180988,-0.002 -0.722283,-0.40757 -1.202878,-0.90227 -0.814116,-0.838 -0.86834,-1.005 -0.79375,-2.44458 0.04403,-0.84982 0.199122,-1.52421 0.344642,-1.49866 0.309818,0.0544 0.982438,2.20231 0.812817,2.59559 -0.06366,0.1476 -0.197175,4.7e-4 -0.296702,-0.32695 -0.09953,-0.32742 -0.286133,-0.59531 -0.414682,-0.59531 -0.381999,0 -0.272359,0.34947 0.437273,1.39379 0.717303,1.0556 1.141998,1.36164 0.588016,0.42372 -0.219532,-0.37168 -0.239098,-0.59827 -0.05743,-0.66511 0.172673,-0.0635 0.239221,-0.9643 0.178255,-2.41283 -0.08972,-2.13169 -0.04427,-2.38952 0.584356,-3.31539 0.374902,-0.55216 0.681641,-1.21303 0.681641,-1.4686 0,-1.25583 1.53838,-2.92586 2.821195,-3.062631 0.435157,-0.0464 0.789724,-0.290492 0.915385,-0.630183 0.257344,-0.695669 2.336841,-2.798375 2.553359,-2.581857 0.08823,0.08823 -0.112858,0.351842 -0.446872,0.585795 -0.692753,0.485222 -1.345151,1.872931 -1.345151,2.861253 0,0.801623 0.424477,0.887451 0.663559,0.13417 0.260826,-0.821789 1.984184,-2.389672 3.252155,-2.958756 0.778172,-0.349255 1.614847,-0.49109 2.64815,-0.448918 0.839526,0.03426 1.79037,-0.0881 2.140436,-0.27545 0.914555,-0.489454 2.184421,-0.823664 2.000815,-0.526584 -0.08416,0.136168 -0.354344,0.250226 -0.600417,0.253461 -0.615325,0.0081 -1.546046,0.800921 -1.752908,1.493205 -0.200087,0.669613 0.282864,1.085726 0.733243,0.631766 0.234706,-0.236572 0.182176,-0.269188 -0.221491,-0.137525 -0.436004,0.142209 -0.412713,0.07613 0.132291,-0.375316 0.363802,-0.301352 0.793632,-0.55056 0.955178,-0.553796 0.161546,-0.0032 0.73557,-0.422602 1.27561,-0.931925 1.063278,-1.002801 2.221336,-1.22195 2.796295,-0.529167 0.22757,0.274204 0.237583,0.396875 0.0324,0.396875 -0.163339,0 -0.29698,0.119063 -0.29698,0.264583 0,0.145521 0.174405,0.264584 0.387566,0.264584 0.406858,0 1.105713,1.028897 0.746222,1.098633 -0.11426,0.02217 -0.326809,0.06796 -0.47233,0.101772 -0.14552,0.03381 -0.534223,0.07521 -0.863784,0.09199 -0.622137,0.03169 -1.662643,1.401615 -1.630861,2.147186 0.01179,0.276576 0.09895,0.236476 0.28753,-0.132291 0.148837,-0.291042 0.642302,-0.826823 1.096589,-1.190626 0.454287,-0.363802 0.734146,-0.51263 0.621907,-0.330729 -0.381751,0.618694 0.375732,0.337056 1.049867,-0.390348 0.43519,-0.469577 0.628145,-0.93099 0.553223,-1.322917 -0.08635,-0.451711 0.0078,-0.601839 0.377428,-0.601839 0.270862,0 0.492476,-0.178594 0.492476,-0.396875 0,-0.218281 0.104484,-0.396875 0.232187,-0.396875 0.761509,0 1.306632,2.217702 0.561563,2.284585 -0.218281,0.01959 -0.591541,0.04936 -0.829466,0.06614 -0.237925,0.01679 -0.616555,0.311285 -0.8414,0.654442 l -0.40881,0.623922 0.973693,-0.347725 c 0.53553,-0.191249 1.360645,-0.352952 1.833587,-0.359339 0.949585,-0.01282 1.107951,-0.410355 0.396875,-0.996232 -0.440972,-0.36333 -0.440972,-0.374564 0,-0.235909 0.589908,0.185483 0.635807,-0.685554 0.06615,-1.255216 -0.556935,-0.556936 -0.493731,-0.769711 0.129554,-0.436139 0.71111,0.380575 1.401569,1.779139 1.255521,2.543132 -0.08404,0.439635 0.02503,0.667338 0.372521,0.777625 0.27025,0.08577 0.491363,0.254253 0.491363,0.374398 0,0.305183 -0.722787,0.550268 -1.144998,0.38825 -0.193186,-0.07413 -0.699201,-0.01017 -1.124479,0.142139 -0.717531,0.256976 -0.736234,0.248224 -0.259641,-0.121493 0.435446,-0.337797 0.447405,-0.398418 0.07859,-0.398418 -0.617744,0 -1.856652,0.583272 -2.241114,1.055106 -0.179308,0.220056 -0.29837,0.887176 -0.264584,1.482487 0.05025,0.88544 0.145677,1.06036 0.524451,0.96133 0.318993,-0.0834 0.463021,-0.38378 0.463021,-0.96567 0,-0.464538 0.184204,-1.075729 0.409342,-1.358204 0.386184,-0.484535 0.399963,-0.464943 0.24356,0.346305 -0.209573,1.087039 0.288201,1.147009 1.444529,0.174021 0.460304,-0.387319 0.74894,-0.513426 0.663091,-0.289706 -0.108072,0.281635 0.08629,0.448511 0.67228,0.577217 1.213149,0.266451 2.154439,1.819847 2.234639,3.687787 0.0347,0.80907 0.1372,1.54507 0.22769,1.63557 0.32423,0.32423 0.53045,-1.30363 0.22675,-1.78993 -0.49403,-0.79106 0.12129,-0.56028 0.86606,0.32482 0.37674,0.44773 0.68498,0.6971 0.68498,0.55417 0,-0.53807 -1.17073,-2.42655 -1.5043,-2.42655 -0.19128,0 -0.34779,-0.16996 -0.34779,-0.37768 0,-0.20771 -0.29645,-0.61085 -0.65878,-0.89586 -0.56163,-0.441784 -0.60229,-0.565074 -0.27575,-0.836082 0.30096,-0.249774 0.31456,-0.392662 0.0635,-0.666902 -0.26324,-0.287509 -0.40907,-0.271776 -0.827447,0.08927 -0.480047,0.414268 -0.496528,0.409288 -0.30071,-0.09088 0.452127,-1.154835 0.455857,-1.480739 0.02445,-2.139155 -0.678715,-1.035846 -0.275688,-1.082068 0.649587,-0.0745 0.47866,0.521225 0.76886,1.082708 0.69956,1.353495 -0.0651,0.254517 0.008,0.541012 0.16293,0.636657 0.19273,0.119111 0.2264,-0.235074 0.10688,-1.124216 -0.17258,-1.283907 -0.17009,-1.289712 0.22806,-0.530424 0.23945,0.456635 0.32663,0.99266 0.21518,1.322917 -0.10306,0.305374 -0.21268,0.695822 -0.2436,0.867662 -0.0814,0.452487 0.73615,0.69328 0.99087,0.291838 0.14808,-0.233369 0.21681,-0.15336 0.2196,0.255622 0.002,0.327418 0.10749,0.595308 0.23392,0.595308 0.12643,0 0.17486,-0.476246 0.10762,-1.058329 -0.0941,-0.814835 -0.0318,-1.058334 0.27099,-1.058334 0.42384,0 0.71443,0.540536 0.71443,1.328942 0,0.642611 0.52423,0.956711 0.81928,0.490891 0.12702,-0.200542 0.24525,-0.900405 0.26274,-1.555249 l 0.0318,-1.190625 0.30366,0.926041 c 0.16701,0.509323 0.76546,1.376247 1.3299,1.926493 l 1.02624,1.00046 -0.1604,-0.80202 c -0.0882,-0.441108 -0.0538,-0.802016 0.0765,-0.802016 0.37542,0 0.639,1.561116 0.5986,3.545316 -0.0283,1.39116 -0.15756,1.95776 -0.5431,2.38126 -0.56273,0.61811 -0.5572,0.90282 0.0455,2.34165 0.53851,1.28564 0.78836,1.26067 0.66183,-0.0662 -0.11606,-1.21705 0.32113,-1.42802 0.79663,-0.38442 0.50193,1.10162 0.35879,2.31537 -0.41352,3.50646 -0.39632,0.61121 -0.83379,1.1113 -0.97217,1.1113 -0.13837,0 0.0172,-0.28615 0.3458,-0.63589 0.79715,-0.84852 1.40672,-3.33286 0.81778,-3.33286 -0.14553,0 -0.26525,0.14882 -0.26606,0.33073 -0.004,0.7746 -0.58443,2.32486 -1.22501,3.26881 -0.37937,0.55903 -0.49673,0.85621 -0.2608,0.66041 0.23592,-0.1958 0.42895,-0.25659 0.42895,-0.1351 0,0.12149 -0.30687,0.46558 -0.68194,0.76465 -0.54997,0.43854 -0.64682,0.68365 -0.50048,1.26671 0.21712,0.86506 0.44977,0.89187 1.59537,0.18385 0.85052,-0.52565 1.35551,-1.64291 1.21069,-2.6786 -0.0338,-0.24177 0.0633,-0.51669 0.21578,-0.61093 0.17938,-0.11086 0.27725,0.30325 0.27725,1.1731 0,1.20768 -0.11109,1.46495 -1.09204,2.52915 -0.60061,0.6516 -1.25546,1.18472 -1.4552,1.18472 -0.19975,0 -0.36318,0.1603 -0.36318,0.35622 0,0.47805 -0.78302,2.02503 -1.02499,2.02503 -0.35757,0 -1.32275,2.31995 -1.18474,2.8477 0.16189,0.61906 -1.06616,2.13439 -2.1997,2.71428 -0.41247,0.21101 -1.0053,0.6175 -1.3174,0.9033 -0.63434,0.5809 -3.030325,1.16481 -4.885642,1.19065 -1.022018,0.0142 -1.381398,0.16943 -2.216807,0.95732 -0.716966,0.67619 -1.191888,0.91774 -1.690655,0.85989 -0.73487,-0.0852 -0.739283,-0.10852 -0.403549,-2.13096 0.107783,-0.64927 0.06326,-0.99218 -0.128822,-0.99218 -0.161442,0 -0.29353,0.12142 -0.29353,0.26984 0,0.14841 -0.29915,0.74372 -0.664778,1.32291 -0.537696,0.85177 -0.585289,1.05308 -0.248968,1.05308 0.228695,0 0.357428,0.0945 0.286073,0.20992 -0.157703,0.25517 -4.105656,0.29949 -5.633283,0.0632 z m 8.082799,-0.44051 c 0.724464,-0.50744 1.611291,-2.32793 1.594022,-3.27224 l -0.0121,-0.66145 -0.278387,0.66145 c -0.153113,0.36381 -0.407044,0.95912 -0.564291,1.32292 -0.157247,0.3638 -0.642583,1.04841 -1.078525,1.52135 -0.847018,0.91892 -0.673727,1.1375 0.339278,0.42797 z m -7.179656,-0.16338 c -0.06063,-0.1819 -0.268993,-0.33073 -0.463021,-0.33073 -0.194027,0 -0.402387,0.14883 -0.46302,0.33073 -0.06558,0.19674 0.122002,0.33073 0.46302,0.33073 0.341019,0 0.528602,-0.13399 0.463021,-0.33073 z m 3.474319,-0.84477 c 0.162797,-0.64652 0.289341,-1.56926 0.281211,-2.05052 l -0.01478,-0.87502 -0.448238,1.10251 c -0.246531,0.60639 -0.537534,1.19178 -0.646675,1.30087 -0.109141,0.10909 -0.198437,0.53569 -0.198437,0.94801 0,1.19482 0.690983,0.90829 1.026923,-0.42585 z m -1.310103,-0.21357 c 0.01023,-0.10914 -0.159997,-0.19843 -0.378278,-0.19843 -0.405145,0 -0.550603,0.81641 -0.206727,1.16029 0.168955,0.16895 0.535513,-0.43374 0.585005,-0.96186 z m -3.068146,-0.0855 c -0.238476,-0.62145 -0.617424,-0.42731 -0.617424,0.31633 0,0.57403 0.06582,0.63923 0.381148,0.37753 0.209632,-0.17398 0.315956,-0.48622 0.236276,-0.69386 z m -1.02149,0.40459 c -0.189869,-0.30722 0.458322,-1.43266 1.280092,-2.22261 0.356441,-0.34264 0.428555,-0.54999 0.215926,-0.62087 -0.434255,-0.14475 -1.705331,1.1658 -1.812636,1.86893 -0.09314,0.61034 0.0764,1.25077 0.33112,1.25077 0.08592,0 0.07939,-0.1243 -0.0145,-0.27622 z m 6.748183,-1.11285 c 0.0032,-0.10914 -0.159197,-0.19843 -0.360962,-0.19843 -0.208447,0 -0.419148,0.35636 -0.487977,0.82532 l -0.121132,0.82533 0.482094,-0.62689 c 0.265151,-0.34479 0.484741,-0.71619 0.487977,-0.82533 z m 2.770856,-0.16927 c 0.33134,-0.73478 0.412696,-1.28042 0.268196,-1.79872 -0.176995,-0.63485 -0.225107,-0.66636 -0.327986,-0.21482 -0.06631,0.29104 -0.227587,0.5968 -0.358393,0.67945 -0.130805,0.0827 -0.279332,0.7047 -0.330061,1.38231 -0.107261,1.43273 0.08605,1.42027 0.748244,-0.0482 z m -6.714863,0.037 c 0.01037,-0.25466 0.07615,-0.93927 0.146166,-1.52135 0.101947,-0.84752 0.0613,-0.99245 -0.204069,-0.7276 -0.440707,0.43984 -0.666513,0.41744 -0.666513,-0.0661 0,-0.21829 0.128985,-0.40067 0.286633,-0.40529 0.157647,-0.005 0.05552,-0.18323 -0.226959,-0.39688 -0.508399,-0.38453 -0.508399,-0.38852 0,-0.39434 0.496124,-0.006 0.495014,-0.0214 -0.03262,-0.46302 -1.390052,-1.16337 -1.744443,-3.25065 -0.797336,-4.69612 0.229628,-0.35046 0.417506,-0.68603 0.417506,-0.74572 0,-0.0923 -1.082715,-0.39505 -1.984375,-0.55489 -1.033393,-0.18319 -1.924687,-1.52491 -1.768681,-2.66249 0.0599,-0.43679 0.02502,-0.45988 -0.199802,-0.1323 -0.594919,0.86686 -0.315504,1.90103 0.789164,2.92086 0.967179,0.89289 1.030266,1.02686 0.658595,1.39853 -0.226075,0.22607 -0.47918,0.92428 -0.562455,1.55156 -0.124468,0.93757 -0.01207,1.39945 0.631668,2.59572 0.430693,0.80037 0.997999,1.49787 1.260678,1.55001 0.341017,0.0677 0.255775,-0.10016 -0.298075,-0.58695 -0.426622,-0.37496 -0.633874,-0.68552 -0.460561,-0.69011 0.173313,-0.005 0.395965,0.12245 0.494783,0.28235 0.09882,0.15989 0.552329,0.45288 1.007803,0.6511 0.455473,0.19821 0.649539,0.36687 0.431258,0.3748 -0.352778,0.0128 -0.352778,0.0429 0,0.27088 0.307614,0.1988 0.218353,0.26444 -0.396875,0.29184 l -0.79375,0.0354 0.79375,0.17014 c 0.707405,0.15163 0.784453,0.2627 0.708291,1.02104 -0.047,0.468 -0.01021,0.97267 0.08176,1.12148 0.264298,0.42764 0.663331,0.31537 0.684016,-0.19246 z m -3.58297,-5.07821 c -0.253548,-0.49031 -0.305063,-0.83908 -0.139086,-0.94166 0.144987,-0.0896 0.263613,-0.12534 0.263613,-0.0794 0,0.0459 0.110751,0.46968 0.246114,0.94166 0.306253,1.06785 0.157029,1.09982 -0.370641,0.0794 z m 0.927586,-0.2622 c -0.150641,-0.28148 -0.265834,-0.78749 -0.255985,-1.12448 0.01789,-0.61209 0.01818,-0.61204 0.291791,0.0488 0.150636,0.3638 0.381712,0.86981 0.513501,1.12448 0.149017,0.28794 0.142249,0.46302 -0.0179,0.46302 -0.141634,0 -0.380768,-0.2303 -0.531408,-0.51178 z m -1.067642,-1.34032 c 0,-0.14552 0.126089,-0.26458 0.280198,-0.26458 0.154109,0 0.206613,0.11906 0.116677,0.26458 -0.08994,0.14553 -0.216026,0.26459 -0.280199,0.26459 -0.06417,0 -0.116676,-0.11906 -0.116676,-0.26459 z m 0.264583,-0.79375 c 0,-0.14552 0.111039,-0.26458 0.246753,-0.26458 0.135715,0 0.322372,-0.23825 0.414794,-0.52945 0.09242,-0.29119 0.411564,-0.65977 0.709203,-0.81906 0.538798,-0.28836 0.539009,-0.28576 0.04823,0.59559 -0.645739,1.15962 -1.418977,1.71408 -1.418977,1.0175 z m 4.928053,7.54936 c 0.28091,-0.73204 -0.03329,-0.88575 -0.508635,-0.24882 -0.414769,0.55576 -0.422143,0.63697 -0.05784,0.63697 0.229641,0 0.484556,-0.17467 0.566475,-0.38815 z m 10.926645,-0.29683 c 0.447728,-0.37674 0.812228,-0.82323 0.809998,-0.99219 -0.003,-0.21288 -0.0637,-0.2198 -0.19843,-0.0226 -0.10692,0.15656 -0.668515,0.60304 -1.247997,0.99219 -0.61132,0.41052 -0.869744,0.70753 -0.615614,0.70753 0.240898,0 0.804317,-0.30824 1.252043,-0.68497 z m -13.821874,-0.15839 c -0.08446,-0.21106 -0.147157,-0.14837 -0.159853,0.15986 -0.01149,0.27891 0.05105,0.43518 0.138965,0.34726 0.08792,-0.0879 0.09732,-0.31612 0.02089,-0.50712 z m 12.254675,0.3142 c 0.342025,-0.22104 0.33504,-0.25704 -0.05053,-0.26054 -0.246073,-0.002 -0.520991,0.11502 -0.610928,0.26054 -0.206952,0.33485 0.143306,0.33485 0.661458,0 z m 2.793697,-0.12388 c 0.28248,-0.21365 0.38752,-0.39225 0.23344,-0.39688 -0.15409,-0.005 -0.51128,0.1664 -0.79375,0.38005 -0.282479,0.21365 -0.387524,0.39225 -0.233436,0.39688 0.154086,0.005 0.511276,-0.1664 0.793746,-0.38005 z m -2.3845,-2.04889 c 0.19604,-0.89257 -0.0412,-1.32379 -0.317492,-0.57708 -0.101936,0.27549 -0.461926,0.94501 -0.799978,1.48782 -0.825171,1.32497 -0.773981,1.51369 0.166251,0.61289 0.429492,-0.41148 0.857541,-1.09712 0.951219,-1.52363 z m -14.877198,1.73591 c 0.09475,-0.0948 -0.03389,-0.32303 -0.285882,-0.50729 -0.340722,-0.24914 -0.549698,-0.25904 -0.815288,-0.0386 -0.293185,0.24332 -0.269632,0.33082 0.131541,0.48869 0.646248,0.25431 0.7655,0.26135 0.969629,0.0572 z m 8.634205,-2.20898 c 5.03e-4,-0.21828 -0.192305,-0.005 -0.42846,0.47433 -0.236156,0.47917 -0.677274,1.00388 -0.980262,1.16603 -0.542321,0.29025 -0.542751,0.29783 -0.02762,0.48801 0.424924,0.15687 0.608981,0.0123 0.979348,-0.76916 0.250845,-0.52928 0.456494,-1.14092 0.456996,-1.35921 z m 4.489169,0.46302 c 0.189598,-0.53311 0.174041,-0.72652 -0.0582,-0.72355 -0.684156,0.009 -1.021422,0.49685 -1.090256,1.57785 l -0.0719,1.12911 0.480794,-0.6279 c 0.264436,-0.34534 0.597238,-0.95532 0.73956,-1.35551 z m -8.068686,0.30508 c 0.362442,-0.90583 0.497619,-1.03096 0.822478,-0.76135 0.272203,0.2259 0.388752,0.23359 0.388752,0.0256 0,-0.16334 -0.116317,-0.29698 -0.258484,-0.29698 -0.469878,0 -1.179482,-1.38999 -1.339054,-2.62297 l -0.15705,-1.21349 -0.21264,1.26716 c -0.176568,1.05221 -0.130517,1.35791 0.271461,1.80209 0.317193,0.3505 0.386857,0.59778 0.202057,0.71721 -0.369619,0.23889 -0.724707,2.16666 -0.399091,2.16666 0.136315,0 0.443021,-0.48779 0.681571,-1.08399 z m -4.211573,0.55295 c 0.09057,-0.14655 -0.05123,-0.34451 -0.315114,-0.43993 -0.263885,-0.0954 -0.807213,-0.40033 -1.207395,-0.6776 -0.990148,-0.68604 -0.924009,-0.15124 0.08645,0.69901 0.882833,0.74285 1.181772,0.82997 1.436063,0.41852 z m 18.854693,-0.97149 c 0.684,-0.55748 0.65168,-0.55379 -0.59465,0.0679 -1.57828,0.78729 -2.15837,1.28775 -0.97479,0.841 0.46537,-0.17566 1.17162,-0.58466 1.56944,-0.9089 z m -3.510015,0.70878 c -0.08994,-0.14552 -0.328062,-0.26459 -0.529167,-0.26459 -0.201104,0 -0.439229,0.11907 -0.529166,0.26459 -0.09311,0.15065 0.134749,0.26458 0.529166,0.26458 0.394417,0 0.622276,-0.11393 0.529167,-0.26458 z m -8.498603,-0.46302 c 0.07481,-0.25466 0.185262,-0.87974 0.245452,-1.38907 0.06019,-0.50932 0.05939,-0.72632 -0.0018,-0.48223 -0.06117,0.24409 -0.282661,0.58609 -0.492206,0.76 -0.420779,0.34921 -0.52524,1.57432 -0.134242,1.57432 0.135714,0 0.30796,-0.20836 0.382768,-0.46302 z m 2.262299,-1.32292 c 0.01023,-0.32742 0.150397,-0.59531 0.311487,-0.59531 0.16109,0 0.227393,0.17068 0.14734,0.3793 -0.09792,0.25518 0.02267,0.36662 0.368568,0.34057 0.282764,-0.0213 0.514117,-0.20473 0.514117,-0.40761 0,-0.2089 0.161956,-0.30673 0.373446,-0.22557 0.296276,0.11369 0.32861,-0.013 0.156473,-0.61324 -0.119335,-0.41609 -0.148479,-0.82503 -0.06477,-0.90875 0.08371,-0.0837 0.01557,-0.1522 -0.151432,-0.1522 -0.167002,0 -0.375854,0.32742 -0.464116,0.7276 -0.261064,1.18368 -0.335803,1.29745 -0.357884,0.54478 -0.02343,-0.7986 -0.539631,-1.30731 -0.568651,-0.56039 -0.01652,0.42528 -0.04246,0.41965 -0.232679,-0.0505 -0.188211,-0.46522 -0.242992,-0.42096 -0.453299,0.36621 -0.297426,1.11326 -0.127638,3.10002 0.194814,2.27962 0.114391,-0.29104 0.216353,-0.79706 0.226581,-1.12448 z m -9.851887,0.58695 c -0.408297,-0.3592 -0.877913,-0.6531 -1.043591,-0.6531 -0.165677,0 0.102218,0.29766 0.595324,0.66146 1.146338,0.84574 1.41344,0.84076 0.448267,-0.008 z m 17.014236,0.27295 c 0,-0.27974 -0.28288,-0.39688 -0.958441,-0.39688 -0.821946,0 -0.911532,0.0565 -0.629062,0.39688 0.181157,0.21828 0.612454,0.39687 0.958437,0.39687 0.382776,0 0.629066,-0.15538 0.629066,-0.39687 z m 2.41111,-0.43212 c 0.38023,-0.26306 0.75111,-0.41851 0.82417,-0.34544 0.0731,0.0731 0.10968,-0.13881 0.0813,-0.47084 -0.0283,-0.33203 0.11535,-0.88042 0.31929,-1.21865 0.61654,-1.02257 0.63365,-1.59393 0.0431,-1.4395 -0.28175,0.0737 -0.58486,0.25141 -0.67357,0.39495 -0.098,0.15853 0.0854,0.19896 0.46714,0.10298 0.44574,-0.11207 0.39768,-0.0508 -0.1653,0.21065 -0.43657,0.20277 -0.88783,0.31067 -1.00281,0.23978 -0.11498,-0.0709 -0.46161,0.19219 -0.77028,0.5846 -0.30868,0.39241 -0.92898,0.93773 -1.37845,1.21181 -0.4528,0.27612 -0.63434,0.49878 -0.40711,0.49933 0.22556,5.3e-4 0.55298,-0.14189 0.7276,-0.31651 0.24695,-0.24695 0.3175,-0.1312 0.3175,0.52086 0,0.92887 0.30525,0.93377 1.61737,0.026 z m -1.35278,-0.0709 c 0,-0.19922 1.91835,-1.23868 2.04756,-1.10947 0.0708,0.0708 -0.27159,0.37288 -0.76095,0.67122 -0.85106,0.51885 -1.28661,0.66721 -1.28661,0.43825 z m -21.695833,-0.82397 c 0,-0.35011 -0.566631,-0.65737 -1.212264,-0.65737 -0.503458,0 -0.475894,0.65529 0.04967,1.18086 0.328063,0.32806 0.508972,0.35514 0.79375,0.11879 0.202864,-0.16836 0.368843,-0.45739 0.368844,-0.64228 z m 18.095039,0.2897 c 0.08841,-0.35224 0.08858,-0.82849 2.65e-4,-1.05834 -0.0882,-0.22984 -0.03688,-0.4179 0.114059,-0.4179 0.17626,0 0.196628,-0.27124 0.05694,-0.75831 -0.119615,-0.41708 -0.125897,-0.90651 -0.01397,-1.08762 0.111937,-0.18112 0.144698,-0.55426 0.0728,-0.82919 -0.07177,-0.27493 -0.0064,-0.49988 0.145442,-0.49988 0.151823,0 0.326379,0.20836 0.3879,0.46302 0.08049,0.33316 0.240051,0.17347 0.568915,-0.56936 0.251381,-0.56781 0.399513,-1.25242 0.329187,-1.52135 -0.08945,-0.34204 0.01546,-0.48897 0.349116,-0.48897 0.56065,0 2.20147,-1.76968 1.97723,-2.13251 -0.0845,-0.13681 0.0111,-0.24874 0.21264,-0.24874 0.49003,0 1.41495,-1.01448 1.7634,-1.93415 0.15494,-0.40894 0.39092,-0.67604 0.52439,-0.59355 0.13347,0.0825 0.60995,-0.15905 1.05883,-0.53676 0.58165,-0.48943 0.81615,-0.91745 0.81615,-1.48968 v -0.80293 l -1.10363,1.15718 c -0.607,0.63645 -1.00557,0.91905 -0.88572,0.62801 0.11985,-0.29104 0.25846,-0.94588 0.30802,-1.45521 0.0496,-0.50932 0.017,-0.74744 -0.0725,-0.52916 -0.34672,0.84637 -0.84035,2.03229 -1.30471,3.13447 -0.49671,1.17896 -1.9458,2.42178 -2.82374,2.42178 -0.25726,0 -0.46775,0.17859 -0.46775,0.39687 0,0.51504 0.26144,0.501 1.06561,-0.0573 0.60999,-0.42345 0.6025,-0.39218 -0.11092,0.46302 -0.4208,0.50444 -0.98834,1.07413 -1.261192,1.26599 -0.272857,0.19186 -0.438312,0.44234 -0.367681,0.55662 0.07063,0.11429 -0.1655,0.34171 -0.52474,0.50539 -0.815526,0.37158 -0.845696,0.82685 -0.05785,0.87294 0.379868,0.0222 0.267788,0.094 -0.309697,0.19844 -0.497756,0.09 -0.959686,0.32901 -1.026512,0.53117 -0.07369,0.22292 -0.0039,0.29486 0.177406,0.18282 0.164398,-0.1016 0.298907,-0.0725 0.298907,0.0646 0,0.13714 -0.241543,0.3125 -0.53676,0.38971 -0.29522,0.0772 -0.503579,0.23991 -0.463022,0.36158 0.04056,0.12168 -0.19415,0.48912 -0.521572,0.81654 -0.702567,0.70256 -0.764385,0.57015 -0.162597,-0.3483 0.477636,-0.72896 0.412542,-1.00277 -0.155006,-0.652 -0.354034,0.2188 -0.442484,1.2088 -0.240753,2.6947 0.09441,0.69538 0.49221,0.78168 0.49221,0.10678 0,-0.19272 0.237808,-0.41259 0.528462,-0.4886 0.290654,-0.076 0.640293,-0.41731 0.776979,-0.75846 0.243031,-0.60657 0.248888,-0.60755 0.265287,-0.0442 0.0092,0.31686 -0.280884,0.81024 -0.644686,1.09641 -0.363802,0.28617 -0.647647,0.7413 -0.630766,1.01139 0.02238,0.35812 0.0604,0.38158 0.140412,0.0866 0.06034,-0.22244 0.373956,-0.56387 0.696912,-0.75872 0.472781,-0.28525 0.52275,-0.28635 0.256463,-0.006 -0.380114,0.40068 -0.445741,1.30112 -0.09483,1.30112 0.129747,0 0.308235,-0.2882 0.39664,-0.64044 z m -8.813186,-0.64243 c -0.157311,-0.29394 -0.302234,-0.86968 -0.322051,-1.27943 -0.03198,-0.66127 -0.04929,-0.67527 -0.153986,-0.12457 -0.115529,0.60768 0.411059,2.28943 0.643942,2.05655 0.06496,-0.065 -0.01059,-0.35861 -0.167905,-0.65255 z m 1.579565,0.1993 c 0.244518,-0.45689 0.199618,-0.64484 -0.255274,-1.06864 -0.303588,-0.28284 -0.567172,-0.59891 -0.585744,-0.70238 -0.149654,-0.83379 -0.122029,-1.37875 0.06989,-1.37875 0.125652,0 0.232245,0.20836 0.236872,0.46302 0.0046,0.25466 0.174989,0.68287 0.378579,0.95159 0.326511,0.43095 0.364521,0.25167 0.322315,-1.5202 -0.04348,-1.82531 -0.09684,-2.00888 -0.584291,-2.00993 -0.724801,-0.002 -1.646584,-0.68162 -2.284834,-1.68568 -0.468118,-0.73641 -0.508058,-0.75513 -0.357577,-0.16755 0.316443,1.2356 0.740109,1.82728 1.600869,2.23574 0.861058,0.4086 1.584281,1.41517 0.800778,1.11451 -0.3781,-0.14509 -0.757957,0.52877 -0.796086,1.41225 -0.03496,0.80995 0.422489,2.5071 0.728128,2.70141 0.422012,0.2683 0.389717,0.28366 0.726373,-0.34539 z m 8.453165,0.28981 c 0,-0.14552 -0.119063,-0.26458 -0.264583,-0.26458 -0.145521,0 -0.264584,0.11906 -0.264584,0.26458 0,0.14552 0.119063,0.26458 0.264584,0.26458 0.14552,0 0.264583,-0.11906 0.264583,-0.26458 z m -16.563759,-0.7276 c -0.09347,-0.40019 -0.227193,-1.23797 -0.297167,-1.86174 -0.106662,-0.95082 -0.188842,-1.08299 -0.508454,-0.81773 -0.406131,0.33706 -0.270729,1.65554 0.234413,2.28259 0.146535,0.1819 0.177739,0.33073 0.06934,0.33073 -0.108397,0 -0.04887,0.17859 0.132291,0.39688 0.474562,0.57181 0.562082,0.49349 0.369574,-0.33073 z m 18.415839,-0.46327 c 0,-0.0654 -0.31417,5.3e-4 -0.69815,0.14649 -0.824762,0.31357 -1.09192,0.15206 -0.643067,-0.38877 0.278987,-0.33616 0.213415,-0.34674 -0.493872,-0.0798 -0.832029,0.31405 -0.977963,0.91472 -0.187981,0.77372 0.239565,-0.0428 0.435573,0.0496 0.435573,0.20523 0,0.17258 0.309655,0.12285 0.793747,-0.12749 0.43657,-0.22575 0.79375,-0.46399 0.79375,-0.52941 z M 80.766493,119.7438 c 0.432988,-0.52172 0.269172,-0.56997 -1.021223,-0.30076 -1.160031,0.24201 -1.474322,0.61883 -0.661458,0.79306 0.653849,0.14015 1.319395,-0.0546 1.682681,-0.4923 z m 7.108608,-1.91552 c 0.2944,-0.19965 0.535273,-0.48212 0.535273,-0.62771 0,-0.14781 -0.175259,-0.11925 -0.396875,0.0647 -0.319321,0.26501 -0.396875,0.25984 -0.396875,-0.0265 0,-0.68736 -0.74137,0.70013 -0.795691,1.48915 -0.101891,1.48002 0.05978,1.84535 0.289407,0.65399 0.136588,-0.70864 0.446175,-1.33757 0.764761,-1.55362 z m -10.974102,2.08279 c 0.09822,-0.15892 -0.238921,-0.26296 -0.844281,-0.26053 -0.748114,0.003 -0.905536,0.0701 -0.610927,0.26053 0.517441,0.3344 1.24854,0.3344 1.455208,0 z m 16.129221,-1.30578 c -0.04479,-0.2277 -0.0997,-0.65213 -0.12202,-0.94317 -0.02437,-0.31787 -0.171035,-0.10657 -0.367288,0.52916 -0.179691,0.58209 -0.271879,1.28137 -0.204864,1.55396 0.111204,0.45234 0.1504,0.44228 0.448731,-0.11516 0.179786,-0.33593 0.290235,-0.79709 0.245441,-1.02479 z M 74.773903,119.365 c -0.118211,-0.19127 0.152327,-0.22416 0.844281,-0.10266 l 1.018232,0.1788 -0.661458,-0.6732 c -0.502567,-0.51149 -0.837837,-0.638 -1.395712,-0.52668 -0.678229,0.13534 -0.698417,0.1737 -0.264583,0.50286 0.377823,0.28666 0.392059,0.35878 0.07279,0.36881 -0.352778,0.0111 -0.352778,0.041 0,0.26895 0.514046,0.3322 0.599871,0.32845 0.386445,-0.0169 z m 24.632255,-0.13504 c 0.282474,-0.22907 0.372988,-0.34619 0.201144,-0.26026 -0.563608,0.28181 -0.613725,-0.30046 -0.07894,-0.91707 0.28802,-0.33209 0.523678,-0.7827 0.523678,-1.00135 0,-0.25687 -0.228726,-0.13136 -0.646397,0.35471 -0.355515,0.41374 -0.574109,0.86921 -0.485762,1.01216 0.09795,0.15849 -0.03697,0.18463 -0.345797,0.067 -0.388533,-0.14802 -0.434245,-0.12018 -0.196368,0.11957 0.170529,0.17187 0.247086,0.47658 0.170129,0.67713 -0.186803,0.4868 0.22474,0.46193 0.858309,-0.0519 z m 1.843512,-0.0616 c -0.0815,-0.0815 -0.29496,-1.6e-4 -0.47444,0.18066 -0.25936,0.2613 -0.22897,0.29169 0.14812,0.14811 0.26094,-0.0994 0.40778,-0.2473 0.32632,-0.32877 z m -21.739449,-0.44797 c -0.166318,-0.43342 -0.36409,-0.48033 -0.998563,-0.23686 -0.584047,0.22412 -0.252263,0.63373 0.513319,0.63373 0.458,0 0.594651,-0.11176 0.485244,-0.39687 z m 6.176866,-0.9891 c -0.06329,-0.32912 -0.11747,-0.12215 -0.120406,0.45993 -0.0029,0.58209 0.04884,0.85137 0.115066,0.5984 0.06622,-0.25297 0.06863,-0.72922 0.0053,-1.05833 z m 9.602453,1.10578 c 0,-0.15411 -0.119062,-0.20662 -0.264583,-0.11668 -0.145521,0.0899 -0.264584,0.0337 -0.264584,-0.12498 0,-0.15868 0.183608,-0.35896 0.408017,-0.44507 0.305874,-0.11738 0.370035,-0.39557 0.256297,-1.11124 -0.193643,-1.21845 -0.571311,-1.61087 -0.62183,-0.64612 -0.02131,0.40695 -0.08675,1.0971 -0.145414,1.53366 -0.05867,0.43656 -0.05248,0.88305 0.01375,0.99219 0.180245,0.29703 0.618352,0.2391 0.618352,-0.0818 z m -18.520832,-0.51356 c -0.209853,-0.12969 -0.441082,-0.17628 -0.513842,-0.10352 -0.07276,0.0728 0.03941,0.23841 0.249258,0.36811 0.209853,0.12969 0.441081,0.17628 0.513842,0.10352 0.07276,-0.0728 -0.03941,-0.23841 -0.249258,-0.36811 z m 4.233333,0.26459 c 0,-0.14552 -0.238125,-0.26459 -0.529167,-0.26459 -0.291042,0 -0.529167,0.11907 -0.529167,0.26459 0,0.14552 0.238125,0.26458 0.529167,0.26458 0.291042,0 0.529167,-0.11906 0.529167,-0.26458 z m 13.01413,-0.8407 c -0.116227,-0.7919 -0.144958,-0.81493 -0.344344,-0.27594 -0.230657,0.62353 -0.04582,1.45944 0.278407,1.25906 0.106009,-0.0655 0.135681,-0.50792 0.06594,-0.98312 z m 10.346729,0.28772 c 1.15031,-0.94819 1.80199,-2.07761 1.83326,-3.17722 0.0281,-0.98679 -0.14401,-1.14875 -0.79109,-0.74464 -0.3159,0.19728 -0.4698,0.51373 -0.39289,0.80784 0.23483,0.89799 -0.22524,1.90128 -1.3385,2.91889 -1.33405,1.21945 -0.75302,1.38394 0.68922,0.19513 z m -25.896255,0.0592 c 0.07792,-0.12607 -0.09084,-0.43964 -0.375021,-0.69682 -0.284179,-0.25718 -0.452938,-0.57074 -0.375021,-0.69682 0.07792,-0.12607 -0.04395,-0.22922 -0.270822,-0.22922 -0.617048,0 -0.518438,1.08017 0.113701,1.24548 0.289405,0.0757 0.460972,0.24312 0.38126,0.3721 -0.07971,0.12898 -0.02587,0.2345 0.119652,0.2345 0.145521,0 0.328334,-0.10315 0.406251,-0.22922 z m 9.448464,-1.51926 c 1.039253,-0.0475 1.175341,-0.10916 0.759848,-0.34422 -1.129919,-0.63926 -1.553141,-0.59329 -1.970618,0.21402 -0.225848,0.43674 -0.410632,1.06602 -0.410632,1.3984 0,0.51664 0.0721,0.47056 0.496923,-0.31759 0.340243,-0.63124 0.694792,-0.93096 1.124479,-0.95061 z m 3.820201,0.5035 c -0.271841,-1.19916 -0.285349,-1.21284 -0.367016,-0.37169 -0.0934,0.96203 0.07864,1.61667 0.424858,1.61667 0.123413,0 0.09738,-0.56024 -0.05784,-1.24498 z m -10.645141,0.78911 c 0.121231,-0.0724 -0.140199,-0.351 -0.580956,-0.61904 -0.559536,-0.34028 -0.854683,-0.7715 -0.978018,-1.42893 -0.09715,-0.51787 -0.257324,-0.99145 -0.355936,-1.05239 -0.325277,-0.20104 0.03972,1.82201 0.438548,2.43069 0.411697,0.62833 0.129816,0.81963 -0.410933,0.27888 -0.220618,-0.22062 -0.3175,-0.22735 -0.3175,-0.022 0,0.46655 1.610257,0.76807 2.204795,0.41284 z m 21.370111,-1.30758 c 0.30939,-0.50062 0.49276,-0.97999 0.40747,-1.06528 -0.0853,-0.0853 -0.2638,0.12933 -0.39669,0.47694 -0.1329,0.3476 -0.49341,0.85881 -0.80116,1.13603 -0.30774,0.27722 -0.55953,0.61922 -0.55953,0.76 0,0.4016 0.7314,-0.30693 1.34991,-1.30769 z m 3.78116,0.81577 c 0.0883,-0.23018 0.15254,-0.61713 0.14269,-0.85989 -0.0133,-0.32843 -0.0914,-0.28904 -0.30501,0.15393 -0.15791,0.32742 -0.39501,0.59531 -0.52688,0.59531 -0.13187,0 -0.16618,0.11906 -0.0763,0.26458 0.24137,0.39055 0.58286,0.32187 0.76545,-0.15393 z m -4.62651,-0.60526 c 0.82337,-1.15631 1.12693,-2.12263 0.82782,-2.6352 -0.14187,-0.24314 -0.26157,-0.29738 -0.266,-0.12054 -0.004,0.17684 -0.36523,0.72833 -0.80179,1.22555 -0.75114,0.8555 -1.09385,2.28938 -0.54719,2.28938 0.13561,0 0.48984,-0.34163 0.78716,-0.75919 z m 2.82413,-0.34051 c 0.22797,-0.44085 0.36089,-0.85516 0.29537,-0.92069 -0.0655,-0.0655 -0.37454,0.37089 -0.68671,0.9698 -0.31217,0.59891 -0.44509,1.01322 -0.29537,0.92069 0.14971,-0.0925 0.45873,-0.52894 0.68671,-0.9698 z m -22.914625,0.50439 c -0.0037,-0.1819 -0.420444,-0.98005 -0.926042,-1.77368 -0.805236,-1.26395 -0.919269,-1.35634 -0.919269,-0.74482 0,0.38396 0.109091,0.98505 0.242425,1.33574 0.427405,1.12416 1.619701,2.00395 1.602886,1.18276 z m 1.163135,-0.0723 c 0.126167,-0.32879 0.0583,-0.35143 -0.368567,-0.12298 -0.613322,0.32824 -0.67146,0.52598 -0.154645,0.52598 0.202712,0 0.438158,-0.18135 0.523212,-0.403 z m 6.996111,-0.10963 c 0.06615,-0.19844 -0.03307,-0.29766 -0.23151,-0.23151 -0.190997,0.0637 -0.399356,0.27202 -0.463021,0.46302 -0.06615,0.19844 0.03307,0.29765 0.23151,0.23151 0.190996,-0.0637 0.399356,-0.27203 0.463021,-0.46302 z m 7.43135,-0.17512 c 0.430857,-0.54774 0.473079,-0.74972 0.207409,-0.99219 -0.537038,-0.49014 -1.575243,-1.03107 -1.383514,-0.72084 0.09682,0.15665 -0.012,0.28411 -0.242568,0.28411 -0.385257,0 -0.525843,-0.22114 -1.093302,-1.71979 -0.198006,-0.52293 -0.20152,-0.52272 -0.298115,0.0173 -0.135974,0.76024 0.365542,1.96703 0.817451,1.96703 0.206314,0 0.44562,0.18373 0.53179,0.40829 0.125712,0.3276 0.2665,0.34951 0.712426,0.11085 0.305664,-0.16358 0.620473,-0.23271 0.699575,-0.1536 0.0791,0.0791 -0.16922,0.28645 -0.551827,0.46078 -0.382607,0.17433 -0.695649,0.47644 -0.695649,0.67136 0,0.58549 0.71901,0.4006 1.296324,-0.33334 z m -18.361949,-1.69597 c 0,-1.6316 -0.07927,-2.08893 -0.344471,-1.98747 -0.189459,0.0725 -0.279439,0.0266 -0.199957,-0.10203 0.07948,-0.12861 -0.02958,-0.30064 -0.242368,-0.38229 -0.212785,-0.0816 -0.458453,-0.0327 -0.545929,0.10888 -0.08748,0.14154 -0.240117,0.2074 -0.339203,0.14635 -0.09909,-0.061 -0.212885,0.35493 -0.252889,0.9244 -0.0622,0.88543 0.02402,1.07947 0.595313,1.33977 0.367425,0.16741 0.668046,0.39658 0.668046,0.50927 0,0.25878 0.491214,1.56224 0.588764,1.56232 0.03998,3e-5 0.07269,-0.95361 0.07269,-2.1192 z m -0.94809,-0.32826 c -0.146964,-0.44089 -0.103945,-1.25677 0.06627,-1.25677 0.121202,0 0.220367,0.29766 0.220367,0.66146 0,0.52977 -0.182284,0.90836 -0.286633,0.59531 z m 14.490289,1.86862 c -0.08446,-0.21107 -0.147157,-0.14837 -0.159853,0.15985 -0.01149,0.27892 0.05105,0.43519 0.138965,0.34727 0.08792,-0.0879 0.09732,-0.31612 0.02089,-0.50712 z m -17.246365,0.001 c -0.291042,-0.16327 -0.878087,-0.54025 -1.304545,-0.83772 -0.426458,-0.29747 -0.681358,-0.38873 -0.566444,-0.20279 0.249261,0.40331 1.760113,1.35448 2.135572,1.34447 0.145521,-0.004 0.02646,-0.14066 -0.264583,-0.30394 z m 18.388541,-0.34167 c 0,-0.21454 -0.357188,-0.57479 -0.79375,-0.80054 -0.986419,-0.5101 -1.007435,-0.35185 -0.06885,0.51845 0.84848,0.78676 0.8626,0.79138 0.8626,0.28209 z m -11.1125,0.002 c 0,-0.0676 -0.26789,-0.26573 -0.595312,-0.44019 -0.539809,-0.28764 -0.561457,-0.27617 -0.232187,0.12298 0.338092,0.40985 0.827499,0.59745 0.827499,0.31721 z m 21.959643,-1.19993 c 0.005,-0.46034 0.28769,-0.84308 0.92942,-1.25877 0.50716,-0.32852 0.89264,-0.70251 0.85663,-0.8311 -0.036,-0.12858 0.17428,-0.4551 0.46733,-0.7256 0.67154,-0.61987 1.6161,-2.39986 1.39227,-2.62369 -0.0926,-0.0926 -0.42592,0.33645 -0.74069,0.95346 -0.31478,0.617 -0.91871,1.4133 -1.34209,1.76955 -0.42337,0.35624 -0.70592,0.75103 -0.62787,0.8773 0.078,0.12627 -0.29665,0.45457 -0.83264,0.72955 -0.58081,0.29797 -0.85514,0.57374 -0.67902,0.68259 0.1722,0.10643 0.23463,0.5372 0.14962,1.03228 -0.11133,0.6483 -0.0789,0.75559 0.1369,0.45276 0.15555,-0.21828 0.28611,-0.69453 0.29014,-1.05833 z m -26.457559,0.67708 c 0,-0.0642 -0.119063,-0.19026 -0.264584,-0.28019 -0.14552,-0.0899 -0.264583,-0.0374 -0.264583,0.11667 0,0.15411 0.119063,0.2802 0.264583,0.2802 0.145521,0 0.264584,-0.0525 0.264584,-0.11668 z m 30.294789,-0.55728 0.79375,-0.67132 -1.12448,0.54572 c -1.14401,0.55521 -1.38803,0.80061 -0.79375,0.79825 0.1819,-7.2e-4 0.68792,-0.30342 1.12448,-0.67265 z m -21.56354,0.13649 c 0,-0.36047 -0.64307,-0.59424 -1.241315,-0.45125 -0.406536,0.0972 -0.379024,0.15769 0.182982,0.40248 0.855942,0.37283 1.058333,0.38215 1.058333,0.0488 z m 15.34583,-1.14227 c 0,-0.14552 -0.29765,0.0151 -0.66145,0.35682 -0.36381,0.34178 -0.66146,0.74047 -0.66146,0.88599 0,0.14553 0.29765,-0.0151 0.66146,-0.35682 0.3638,-0.34177 0.66145,-0.74047 0.66145,-0.88599 z m -8.370983,0.7537 c 0.111226,-0.28985 -0.03258,-0.39688 -0.533256,-0.39688 -0.57938,0 -0.63454,0.0615 -0.356174,0.39688 0.181157,0.21828 0.421122,0.39687 0.533256,0.39687 0.112133,0 0.272412,-0.17859 0.356174,-0.39687 z m 4.137653,-0.14119 c 0.346141,-0.23144 0.337685,-0.30025 -0.06615,-0.53826 -0.254661,-0.15009 -0.463021,-0.39306 -0.463021,-0.53994 0,-0.14688 0.108982,-0.1997 0.242181,-0.11737 0.335804,0.20753 1.780643,-1.05394 1.950329,-1.70281 0.179766,-0.68742 -0.126754,-0.67779 -0.761815,0.0239 -0.957178,1.05767 -3.282778,1.78822 -3.282778,1.03124 0,-0.14552 -0.115326,-0.26458 -0.256279,-0.26458 -0.140954,0 -0.187747,0.17859 -0.103984,0.39687 0.08376,0.21828 0.384708,0.39688 0.668769,0.39688 0.28406,0 0.445573,0.11472 0.358917,0.25493 -0.158792,0.25693 0.749746,1.33605 1.118514,1.32852 0.109141,-0.002 0.377032,-0.12347 0.595313,-0.26943 z M 80.909864,113.4949 c -0.01446,-0.61847 0.05871,-1.42214 0.162606,-1.78594 0.146451,-0.5128 0.102982,-0.48306 -0.193411,0.13229 -0.517251,1.07389 -0.516117,2.77813 0.0019,2.77813 0.03039,0 0.04342,-0.50602 0.02896,-1.12448 z m 8.299566,0.46941 c -0.184076,-0.2218 -0.457621,-0.40327 -0.607877,-0.40327 -0.150256,0 -0.05703,0.23886 0.207164,0.53079 0.547176,0.60463 0.911987,0.48853 0.400713,-0.12752 z m 10.313443,0.1259 c 0.363802,-0.28457 0.504807,-0.52005 0.313336,-0.52328 -0.501081,-0.008 -1.371669,0.49749 -1.371669,0.79717 0,0.38423 0.324249,0.30032 1.058333,-0.27389 z m -24.302146,-0.34926 c -0.165258,-0.19912 -0.327093,-0.97391 -0.359632,-1.72175 -0.04004,-0.9203 -0.145991,-1.27289 -0.327842,-1.09104 -0.432047,0.43205 -0.262394,2.33009 0.259851,2.90716 0.519768,0.57434 0.910954,0.48801 0.427623,-0.0944 z m 10.808397,0.34926 c 0,-0.14552 -0.245152,-0.26458 -0.544782,-0.26458 -0.29963,0 -0.471197,0.11906 -0.38126,0.26458 0.08994,0.14552 0.335089,0.26458 0.544782,0.26458 0.209693,0 0.38126,-0.11906 0.38126,-0.26458 z m 6.131537,-0.61236 c -0.316408,-0.33681 -0.584687,-0.78329 -0.596176,-0.99219 -0.01621,-0.29472 -0.0522,-0.30148 -0.160644,-0.0302 -0.122928,0.30754 0.851168,1.63473 1.199815,1.63473 0.07276,0 -0.126587,-0.27556 -0.442995,-0.61236 z m -1.438408,-1.06741 c -0.05223,-1.17467 -0.117699,-1.3433 -0.385236,-0.99219 -0.345512,0.45345 -0.453944,1.9398 -0.162754,2.23099 0.441546,0.44154 0.606155,0.0694 0.54799,-1.2388 z m 2.922064,1.10973 c -0.056,-0.16801 -0.366242,-0.40328 -0.689424,-0.52283 -0.525505,-0.1944 -0.558034,-0.16212 -0.307795,0.30546 0.294736,0.55072 1.172082,0.74196 0.997219,0.21737 z m 10.779663,-0.0633 c 0.4632,-0.3387 0.42956,-0.36265 -0.41245,-0.29359 -1.14366,0.0938 -1.1129,0.0804 -0.91678,0.39778 0.22836,0.36949 0.73584,0.32971 1.32923,-0.10419 z m -28.449022,-0.13263 c 0,-0.13025 0.276652,-0.50308 0.614784,-0.82852 l 0.614784,-0.59171 -0.755398,-0.82512 c -0.630513,-0.68872 -0.797094,-0.75952 -1.007607,-0.42825 -0.285139,0.44869 -0.341668,1.86138 -0.09971,2.4919 0.171043,0.44573 0.63315,0.57835 0.633151,0.1817 z m 9.789582,-0.007 c 0,-0.13396 -0.343599,-0.31903 -0.763555,-0.41126 -0.587569,-0.12906 -0.801429,-0.35708 -0.927879,-0.98933 -0.09038,-0.45189 -0.234894,-0.75105 -0.321147,-0.66479 -0.08625,0.0862 -0.0191,0.57413 0.149227,1.08417 0.282807,0.85691 0.434703,0.96536 1.664917,1.18874 0.109141,0.0198 0.198437,-0.0736 0.198437,-0.20753 z m 13.642403,-0.48978 c -0.08869,-0.0887 -0.366776,0.0539 -0.617974,0.31693 -0.43662,0.45713 -0.429524,0.46423 0.161253,0.16125 0.339884,-0.17431 0.54541,-0.38949 0.456721,-0.47818 z m -19.463236,0.003 c 0,-0.25604 -0.238125,-0.61423 -0.529166,-0.79599 -0.368732,-0.23029 -0.534805,-0.63062 -0.547763,-1.32043 -0.01377,-0.73314 -0.07051,-0.85739 -0.218725,-0.47896 -0.25621,0.65418 -0.06889,1.63863 0.383185,2.01382 0.193517,0.16061 0.286656,0.4619 0.206976,0.66954 -0.08844,0.23047 0.02075,0.37753 0.280311,0.37753 0.23385,0 0.425182,-0.20948 0.425182,-0.46552 z m 8.27599,-1.31455 c 0.07183,-0.54893 0.222408,-1.28456 0.334611,-1.63474 0.146132,-0.45607 0.116589,-0.58266 -0.104138,-0.44624 -0.452411,0.2796 -1.001477,1.46897 -1.210329,2.62176 -0.170757,0.94253 -0.148601,0.9913 0.333165,0.73347 0.323052,-0.17289 0.564936,-0.64951 0.646691,-1.27425 z m 15.586863,0.34662 c 0.25525,-0.49161 0.21097,-0.48186 -0.41132,0.0905 -0.38355,0.35279 -0.69737,0.75432 -0.69737,0.8923 0,0.3551 0.7671,-0.32489 1.10869,-0.9828 z m -10.10452,0.67056 c 0,-0.12855 -0.244929,-0.29777 -0.544288,-0.37606 -0.446608,-0.11679 -0.488277,-0.0749 -0.232186,0.23373 0.349323,0.42091 0.776474,0.49921 0.776474,0.14233 z m 3.518868,-0.20007 c 0.465717,-0.23858 0.928198,-0.56032 1.027737,-0.71497 0.367668,-0.57123 -0.07294,-0.63391 -1.029144,-0.14641 -0.540933,0.27578 -1.136935,0.50143 -1.324447,0.50143 -0.642866,0 -0.344495,0.57676 0.399813,0.77286 0.04361,0.0115 0.460325,-0.17432 0.926041,-0.41291 z m -11.081743,-0.2651 c 0.124673,-0.32489 0.08181,-0.36717 -0.17013,-0.16782 -0.185233,0.14657 -0.51538,0.3326 -0.733661,0.41341 -0.270893,0.10029 -0.216888,0.15356 0.17013,0.16782 0.311853,0.0115 0.642,-0.17454 0.733661,-0.41341 z m 19.147525,-0.48436 c 0.42753,-0.35975 0.88315,-0.57009 1.01249,-0.46743 0.12933,0.10265 0.10571,0.0354 -0.0525,-0.14951 -0.38254,-0.44704 -1.56018,-0.008 -1.95454,0.72919 -0.39532,0.73865 0.0419,0.6893 0.99453,-0.11225 z m -22.828823,0.0611 c 0.119082,0.10787 0.139203,0.0608 0.04472,-0.10461 -0.09449,-0.16541 0.0055,-0.44788 0.222163,-0.62771 0.216679,-0.17983 0.393962,-0.49516 0.393962,-0.70075 0,-0.66278 -0.976122,0.0867 -1.291611,0.99168 -0.237675,0.68179 -0.226557,0.77707 0.06266,0.53704 0.193379,-0.16049 0.449029,-0.20353 0.568111,-0.0957 z m 3.155854,0.0938 c 0.07975,-0.12904 -0.04014,-0.38825 -0.266414,-0.57605 -0.700997,-0.58177 -1.170088,-1.75879 -1.174318,-2.94652 -0.003,-0.832 -0.07296,-1.031 -0.260532,-0.74075 -0.392649,0.60758 -0.313002,2.04759 0.16536,2.98971 0.734504,1.44657 1.193681,1.82733 1.535904,1.27361 z m 3.554864,-0.82373 c 0.459848,-0.36248 0.864871,-1.05834 0.616001,-1.05834 -0.526225,0 -1.109576,0.83278 -1.078937,1.54026 0.02406,0.55556 0.05926,0.59435 0.162899,0.17954 0.07271,-0.29105 0.207731,-0.5887 0.300037,-0.66146 z m 1.667489,-0.61129 c 0.258494,-0.10319 0.264276,-0.14625 0.0217,-0.16157 -0.476535,-0.0301 -1.389236,0.9565 -1.388074,1.50046 6.62e-4,0.31367 0.164356,0.19511 0.507472,-0.36759 0.278565,-0.45684 0.665073,-0.89393 0.858906,-0.9713 z m 0.400873,1.09084 c -0.08446,-0.21106 -0.147156,-0.14837 -0.159852,0.15986 -0.01149,0.27891 0.05105,0.43518 0.138964,0.34726 0.08792,-0.0879 0.09732,-0.31612 0.02089,-0.50712 z m 10.322023,0.1821 c 0.70656,-0.49489 1.66807,-2.02287 1.66807,-2.65081 0,-0.31465 -0.26128,-0.1108 -0.78545,0.61279 -0.43199,0.59635 -1.02731,1.21372 -1.32291,1.37192 -0.29561,0.15821 -0.53747,0.46205 -0.53747,0.67521 0,0.49263 0.26496,0.49016 0.97776,-0.009 z M 80.868315,110.9175 c 0.224967,-0.43504 0.376853,-0.8709 0.337524,-0.96858 -0.03933,-0.0977 0.285681,-0.30729 0.722243,-0.46579 0.780396,-0.28334 0.791137,-0.31267 0.638439,-1.7434 -0.08542,-0.80036 -0.174718,-1.27591 -0.198437,-1.05677 -0.02372,0.21913 -0.43008,0.56732 -0.903023,0.77374 -0.472942,0.20642 -1.065731,0.60798 -1.317309,0.89235 -0.485246,0.54851 -0.908467,2.21404 -0.63268,2.48982 0.09023,0.0902 0.168334,-0.0641 0.173567,-0.34306 0.01111,-0.59214 1.209773,-2.15415 1.460589,-1.90334 0.09383,0.0938 -0.07949,0.43906 -0.385167,0.76716 -0.33265,0.35706 -0.55577,0.94829 -0.55577,1.4727 0,1.08195 0.135529,1.09944 0.660024,0.0852 z m 12.560339,0.59254 c -0.0048,-0.10914 -0.240882,-0.47694 -0.524535,-0.81734 -0.73176,-0.87815 -1.228088,-0.59961 -0.524777,0.2945 0.540017,0.68652 1.068248,0.94973 1.049312,0.52284 z m 4.601805,-1.15165 c 0.252849,-0.36099 0.516575,-0.48426 0.743665,-0.3476 0.280304,0.1687 0.278254,0.121 -0.01008,-0.23449 -0.199078,-0.24544 -0.299522,-0.68501 -0.223208,-0.97683 0.07631,-0.29181 0.03083,-0.53057 -0.101065,-0.53057 -0.131898,0 -0.239813,0.15213 -0.239813,0.33807 0,0.18594 -0.238125,0.54196 -0.529167,0.79116 -0.291042,0.2492 -0.529167,0.62482 -0.529167,0.83472 0,0.2099 -0.238125,0.45722 -0.529166,0.54959 -0.291042,0.0924 -0.529167,0.34158 -0.529167,0.55379 0,0.33436 0.103755,0.33219 0.777689,-0.0163 0.427729,-0.22119 0.953996,-0.65387 1.16948,-0.96152 z m -19.806247,-0.50375 c 0.08722,-0.51624 0.05564,-1.21689 -0.07017,-1.55699 -0.223212,-0.6034 -0.240707,-0.60643 -0.72259,-0.12512 -0.4819,0.48132 -0.490085,0.47886 -0.338547,-0.10181 0.08541,-0.32727 0.04741,-0.66172 -0.08445,-0.74322 -0.131859,-0.0815 -0.239744,0.0247 -0.239744,0.23602 0,0.2113 -0.178594,0.45271 -0.396875,0.53647 -0.446789,0.17145 -0.520878,1.15511 -0.132292,1.75641 0.208515,0.32265 0.257238,0.28846 0.260532,-0.18283 0.0022,-0.31883 0.123114,-0.65328 0.268635,-0.74321 0.154827,-0.0957 0.264583,0.17943 0.264583,0.66323 0,1.1003 0.498971,2.06269 0.809194,1.56074 0.122732,-0.19859 0.294509,-0.78345 0.381728,-1.29969 z m 16.684987,0.12913 c -0.235711,-1.25645 -0.67916,-1.43073 -0.507471,-0.19945 0.07655,0.54897 0.202418,1.17671 0.279715,1.39499 0.244962,0.69176 0.414682,-0.19914 0.227756,-1.19554 z m -0.942576,0.82891 c 0,-0.0561 -0.17786,-0.44308 -0.395244,-0.85989 -0.390872,-0.74947 -0.573743,-0.33175 -0.237906,0.54343 0.138425,0.36073 0.63315,0.608 0.63315,0.31646 z m 4.7625,-0.16253 c 0,-0.14552 -0.119062,-0.26459 -0.264583,-0.26459 -0.145521,0 -0.264583,0.11907 -0.264583,0.26459 0,0.14552 0.119062,0.26458 0.264583,0.26458 0.145521,0 0.264583,-0.11906 0.264583,-0.26458 z m -11.377083,-0.5443 c 0,-0.13694 -0.119062,-0.24897 -0.264583,-0.24897 -0.145521,0 -0.264583,0.18562 -0.264583,0.41249 0,0.22687 0.119062,0.3389 0.264583,0.24897 0.145521,-0.0899 0.264583,-0.27556 0.264583,-0.41249 z m 9.525,-0.44098 c 0,-0.82935 -0.126733,-0.73341 -0.370259,0.28032 -0.118139,0.49178 -0.08543,0.69125 0.09507,0.5797 0.151353,-0.0935 0.275188,-0.48055 0.275189,-0.86002 z m 3.21801,0.65503 c 0.48275,-0.39062 1.27991,-1.54655 1.27991,-1.85595 0,-0.11927 -0.47625,0.28379 -1.05834,0.89568 -0.58208,0.6119 -1.05833,1.1527 -1.05833,1.20177 0,0.19966 0.453194,0.0689 0.83676,-0.2415 z m 6.02211,-0.35425 c 0.44772,-0.37674 0.81405,-0.86002 0.81405,-1.07395 0,-0.22695 0.12741,-0.31022 0.30587,-0.19993 0.48527,0.29991 0.0488,-1.8188 -0.44974,-2.18337 -0.2313,-0.16912 -0.40891,-0.40764 -0.39469,-0.53003 0.0397,-0.34159 -1.34055,-0.43364 -1.66326,-0.11093 -0.20397,0.20397 -0.0482,0.28527 0.5464,0.28527 0.89039,0 1.65542,0.76921 1.65542,1.66448 0,0.26862 -0.55069,1.01603 -1.22375,1.66092 -1.32315,1.26775 -0.98946,1.66485 0.4097,0.48754 z m -3.69987,-0.93062 c 0.38091,-0.67774 0.6606,-1.70921 0.7435,-2.74192 0.17645,-2.19824 -0.32408,-2.53325 -0.70922,-0.47469 -0.15691,0.8387 -0.41587,1.8821 -0.57547,2.31867 -0.79532,2.1755 -0.47528,2.70651 0.54119,0.89794 z m -16.388166,0.40936 c 0,-0.22687 -0.121005,-0.33771 -0.268899,-0.2463 -0.147895,0.0914 -0.2004,0.27702 -0.116677,0.41249 0.226811,0.36698 0.385576,0.29855 0.385576,-0.16619 z m 14.550426,-0.95013 c 0.43747,-0.60391 0.79541,-0.94126 0.79541,-0.74965 0,0.19161 0.0623,0.28604 0.13852,0.20986 0.0762,-0.0762 0.0605,-0.34198 -0.035,-0.59065 -0.13897,-0.36214 -0.30116,-0.23804 -0.81498,0.62359 -0.35281,0.59165 -0.753789,1.07572 -0.891063,1.07572 -0.137274,0 -0.249587,0.11906 -0.249587,0.26458 0,0.47738 0.249899,0.28027 1.05668,-0.83345 z m -10.858496,-0.44915 c -0.504454,-0.16869 -1.439408,0.19884 -1.738299,0.68333 -0.272929,0.44241 -0.207781,0.43814 0.859014,-0.0563 0.634887,-0.29427 1.030565,-0.57642 0.879285,-0.62701 z m 0.805986,1.01802 c 0.322653,-0.20852 0.288462,-0.25724 -0.182822,-0.26053 -0.318834,-0.002 -0.653282,0.11501 -0.743219,0.26053 -0.208194,0.33686 0.404781,0.33686 0.926041,0 z m -16.20867,-0.92582 c -0.156278,-0.5092 -0.335057,-0.8749 -0.397288,-0.81267 -0.186648,0.18665 0.226316,1.73849 0.462633,1.73849 0.120338,0 0.09093,-0.41662 -0.06534,-0.92582 z m 1.242578,0.68896 c 0.08051,-0.13027 -0.02546,-0.3028 -0.235494,-0.3834 -0.254734,-0.0978 -0.332896,-0.0189 -0.234756,0.23686 0.170552,0.44445 0.267466,0.47465 0.47025,0.14654 z m 9.320488,-0.88762 c -0.0734,-0.1819 -0.133452,-0.0331 -0.133452,0.33073 0,0.3638 0.06005,0.51263 0.133452,0.33073 0.0734,-0.1819 0.0734,-0.47956 0,-0.66146 z m 2.803435,0.21047 c 0.224067,0.086 0.485995,0.0292 0.582063,-0.12629 0.317806,-0.51422 -1.099459,-0.30128 -1.745478,0.26225 l -0.624624,0.54487 0.690323,-0.41858 c 0.379678,-0.23022 0.87365,-0.34823 1.097716,-0.26225 z m 6.754004,0.30836 c 0.686502,0.10626 0.695859,0.093 0.210914,-0.29855 -0.340208,-0.27471 -0.609839,-0.32478 -0.818094,-0.15195 -0.170849,0.14179 -0.388977,0.17946 -0.484728,0.0837 -0.09575,-0.0957 -0.174094,-0.055 -0.174094,0.0905 0,0.37563 0.369769,0.69868 0.466739,0.40777 0.04449,-0.13347 0.404157,-0.19263 0.799263,-0.13147 z M 79.255633,107.6519 c 0.118139,-0.49178 0.08543,-0.69126 -0.09507,-0.5797 -0.151353,0.0935 -0.275188,0.48055 -0.275188,0.86001 0,0.82936 0.126732,0.73341 0.370258,-0.28031 z m 21.063887,0.0222 c 0.28836,-0.47295 0.51483,-1.21709 0.50326,-1.65365 -0.0197,-0.7439 -0.0602,-0.71067 -0.64423,0.52917 -0.939662,1.99469 -0.845851,2.74298 0.14097,1.12448 z m -24.235207,-0.93713 c 0.03175,-0.58161 0.260999,-1.36771 0.509449,-1.74689 0.24845,-0.37918 0.376261,-0.68942 0.284025,-0.68942 -0.09224,0 0.113378,-0.23417 0.456921,-0.52037 0.343544,-0.2862 0.484955,-0.52432 0.314248,-0.52916 -0.790502,-0.0224 -2.37781,2.20158 -2.177523,3.05096 0.0321,0.13614 -0.0328,0.45588 -0.144236,0.71055 -0.111432,0.25466 -0.126431,0.66152 -0.03333,0.90413 0.270118,0.70392 0.724657,0.0255 0.790446,-1.1798 z m 11.319284,0.25905 c -0.709617,-0.10611 -1.639057,0.38863 -1.639057,0.87247 0,0.28915 0.249222,0.24192 1.096242,-0.20774 0.896015,-0.47567 0.995159,-0.59708 0.542815,-0.66473 z m 10.465593,0.58984 c -0.252134,-0.25213 -0.757631,0.15627 -0.569727,0.4603 0.111686,0.18071 0.259678,0.17615 0.449697,-0.0139 0.155776,-0.15578 0.20979,-0.35667 0.12003,-0.44642 z m -14.569742,-0.15981 c -0.08446,-0.21107 -0.147157,-0.14837 -0.159853,0.15985 -0.01149,0.27891 0.05105,0.43518 0.138965,0.34727 0.08792,-0.0879 0.09732,-0.31613 0.02089,-0.50712 z m 12.511876,-0.35616 c -0.177097,-0.21339 -0.434983,-0.38798 -0.57308,-0.38798 -0.138096,0 -0.06399,0.1871 0.164689,0.41577 0.228675,0.22868 0.425173,0.5561 0.436662,0.72761 0.01411,0.21064 0.06515,0.20162 0.157305,-0.0278 0.07503,-0.1868 -0.0085,-0.51422 -0.185576,-0.72761 z m -20.978542,0.0916 c -0.08446,-0.21107 -0.147157,-0.14838 -0.159853,0.15985 -0.01149,0.27891 0.05105,0.43518 0.138964,0.34726 0.08792,-0.0879 0.09732,-0.31612 0.02089,-0.50711 z m 19.919929,0.0393 c -0.426058,-0.26945 -1.050671,-0.33688 -1.050671,-0.11343 0,0.19663 1.162934,0.61699 1.315254,0.47541 0.06855,-0.0637 -0.05052,-0.2266 -0.264583,-0.36198 z m -16.390693,-0.1881 c 0.0032,-0.25467 0.242444,-0.98455 0.531663,-1.62197 0.417153,-0.91938 0.439692,-1.08744 0.109035,-0.81302 -0.900565,0.7474 -1.576685,2.89801 -0.911092,2.89801 0.145521,0 0.267198,-0.20836 0.270394,-0.46302 z m 8.200173,-0.95648 c 0.0053,-0.77242 0.63187,-1.90255 1.009917,-1.82165 0.170005,0.0364 0.279333,-0.0678 0.242953,-0.23151 -0.03638,-0.16371 0.09925,-0.35775 0.301412,-0.4312 0.202157,-0.0734 0.295057,-0.0162 0.206445,0.12714 -0.09599,0.15532 0.103005,0.2102 0.492337,0.13578 0.359399,-0.0687 0.653452,-0.23812 0.653452,-0.37649 0,-0.13836 -0.253035,-0.17126 -0.5623,-0.0731 -0.402159,0.12764 -0.506095,0.0875 -0.364946,-0.14086 0.305904,-0.49496 -0.910777,0.19079 -1.784733,1.00593 -0.510769,0.47639 -0.727604,0.93985 -0.727604,1.55517 0,0.60276 -0.123962,0.87654 -0.396875,0.87654 -0.218281,0 -0.396875,0.18134 -0.396875,0.40297 0,0.3528 0.08237,0.34901 0.661458,-0.0304 0.363802,-0.23837 0.663214,-0.6876 0.665359,-0.99828 z m 3.108038,1.23771 c -0.252964,-0.0662 -0.729214,-0.0686 -1.058333,-0.005 -0.329118,0.0633 -0.122147,0.11747 0.459936,0.1204 0.582083,0.003 0.851362,-0.0488 0.598397,-0.11506 z m 7.603686,-0.0828 c 0.08994,-0.14552 0.03743,-0.26459 -0.116676,-0.26459 -0.15411,0 -0.280199,0.11907 -0.280199,0.26459 0,0.14552 0.0525,0.26458 0.116677,0.26458 0.06417,0 0.190261,-0.11906 0.280198,-0.26458 z M 81.96975,106.44786 c 0.169556,-0.23188 0.255497,-0.50702 0.19098,-0.61141 -0.196294,-0.31761 -0.837435,0.0581 -1.297559,0.76031 -0.426478,0.65088 -0.42284,0.66027 0.181549,0.46845 0.339211,-0.10767 0.755475,-0.38547 0.92503,-0.61735 z m 8.388934,0.48899 c -0.378582,-0.37858 -2.434684,-0.68325 -2.080602,-0.3083 0.145521,0.1541 0.681302,0.32915 1.190625,0.38899 0.509323,0.0598 0.97962,0.12787 1.045104,0.15116 0.06548,0.0233 -0.0043,-0.081 -0.155127,-0.23185 z m 15.165766,-0.30458 c -0.0845,-0.21107 -0.14716,-0.14837 -0.15985,0.15985 -0.0115,0.27891 0.051,0.43518 0.13896,0.34727 0.0879,-0.0879 0.0973,-0.31613 0.0209,-0.50712 z M 77.446029,105.7567 c 0.196444,-0.57142 0.300169,-1.09594 0.2305,-1.16561 -0.246844,-0.24685 -0.8573,0.64812 -1.041447,1.52683 -0.26342,1.25698 0.348312,0.9845 0.810947,-0.36122 z m 13.74247,0.39601 c -0.611597,-0.63837 -0.980785,-0.79375 -1.88597,-0.79375 -1.16903,0 -1.776498,0.39313 -0.962143,0.62266 1.012211,0.28529 2.311018,0.48909 2.170951,0.34064 -0.0814,-0.0863 -0.617178,-0.26682 -1.190624,-0.40121 l -1.042631,-0.24435 1.001642,-0.0266 c 0.739165,-0.0196 1.155164,0.13943 1.5875,0.60694 0.322222,0.34844 0.69743,0.64609 0.833797,0.66146 0.136366,0.0154 -0.09427,-0.32925 -0.512522,-0.76581 z m 5.620602,-0.87856 c -0.102348,-1.06515 -0.291889,-1.48482 -0.92686,-2.05216 -0.695129,-0.6211 -0.93014,-0.6872 -1.81993,-0.51189 -0.561951,0.11073 -1.24962,0.296 -1.528154,0.41172 -0.386407,0.16054 -0.4545,0.12638 -0.287325,-0.14411 0.16574,-0.26817 0.09577,-0.30752 -0.287326,-0.16158 -0.416603,0.15871 -0.445355,0.13149 -0.162109,-0.15347 0.197695,-0.1989 0.901873,-0.33818 1.653646,-0.32708 0.720132,0.0106 1.30933,-0.0787 1.30933,-0.19844 0,-0.36097 0.758956,-0.24692 1.84336,0.277 0.89829,0.43401 1.004332,0.44213 0.86351,0.0661 -0.334665,-0.89353 -0.927836,-1.09574 -2.70687,-0.92274 -0.945885,0.092 -1.974904,0.26275 -2.286708,0.37948 -0.795121,0.29768 -1.57295,0.0371 -1.898533,-0.63593 -0.216323,-0.4472 -0.280776,-0.47452 -0.294768,-0.12494 -0.0098,0.24608 0.102432,0.52178 0.249514,0.61268 0.169272,0.10462 0.120718,0.37472 -0.132292,0.73595 -0.602687,0.86045 -0.479727,1.15518 0.148658,0.35631 0.301603,-0.38342 0.677244,-0.69714 0.834757,-0.69714 0.157513,0 0.06625,0.24325 -0.202807,0.54056 -0.477015,0.52709 -0.476446,0.53566 0.02285,0.34406 0.44432,-0.1705 0.424859,-0.0864 -0.147126,0.63543 -0.647128,0.81672 -1.409462,1.09505 -1.702157,0.62146 -0.226352,-0.36625 -1.189759,-0.0203 -1.486226,0.5336 -0.240724,0.4498 -0.200395,0.46835 0.466736,0.21471 1.085516,-0.41272 5.920184,-0.0555 6.428097,0.47499 0.355748,0.37153 0.342038,0.39336 -0.132291,0.21061 -0.291042,-0.11214 -0.814753,-0.26536 -1.163803,-0.34051 -0.819424,-0.17641 -0.536049,0.32916 0.478583,0.85385 1.008165,0.52134 1.875845,0.26076 1.875845,-0.56335 0,-0.35542 -0.09783,-0.58576 -0.217388,-0.51187 -0.119563,0.0739 -0.427104,-0.11058 -0.683425,-0.40994 -0.460885,-0.53827 -0.947478,-0.55653 -2.406479,-0.0903 -0.370778,0.11849 -0.331181,0.0476 0.132292,-0.23667 0.363802,-0.22318 0.936376,-0.41 1.272386,-0.41515 0.378844,-0.006 0.541961,-0.12097 0.429383,-0.30312 -0.246178,-0.39833 -1.906474,-0.10705 -2.511663,0.44064 -0.671254,0.60748 -1.218596,0.22199 -0.621543,-0.43775 0.486436,-0.53751 1.053419,-0.69693 0.753664,-0.21192 -0.130766,0.21159 -0.03148,0.21159 0.363866,0 0.617392,-0.33042 1.891676,-0.379 2.320894,-0.0885 0.157957,0.10691 0.422227,0.43251 0.587267,0.72355 0.165039,0.29104 0.303692,0.38034 0.308117,0.19844 0.0044,-0.1819 -0.225737,-0.56451 -0.511471,-0.85024 -0.285734,-0.28574 -0.41433,-0.58453 -0.285769,-0.66398 0.317998,-0.19654 1.322813,1.12149 1.383294,1.81449 0.02686,0.30779 0.07466,0.79775 0.10622,1.08879 0.03156,0.29104 0.06911,0.68502 0.08345,0.87551 0.01434,0.19049 0.158797,0.26432 0.321015,0.16406 0.183411,-0.11335 0.246291,-0.68861 0.166285,-1.52125 z m 7.211689,1.12753 c 0,-0.29963 -0.11386,-0.47441 -0.25303,-0.3884 -0.13916,0.086 -0.18596,0.33116 -0.10398,0.54478 0.20987,0.54692 0.35701,0.48247 0.35701,-0.15638 z m -21.848249,-1.04272 c 0.166599,0 0.513903,-0.35719 0.771787,-0.79375 0.257884,-0.43656 0.372851,-0.79212 0.255484,-0.79014 -0.522615,0.009 -1.404021,0.34154 -1.404021,0.52996 0,0.35348 -1.823747,2.05122 -2.017975,1.87855 -0.100942,-0.0897 -0.101523,-0.0202 -0.0013,0.15448 0.131041,0.22841 0.450663,0.13549 1.137674,-0.33072 0.525495,-0.35661 1.091748,-0.64838 1.258347,-0.64838 z m 2.551921,-1.89927 c 0.463304,-0.38975 1.035683,-0.70118 1.271953,-0.69207 0.236271,0.009 0.962205,-0.23038 1.613187,-0.5322 l 1.183603,-0.54877 -0.720583,-0.27396 c -0.456924,-0.17372 -0.720582,-0.46998 -0.720582,-0.80968 0,-0.29464 -0.119062,-0.53572 -0.264583,-0.53572 -0.355158,0 -0.33643,0.61607 0.02986,0.98237 0.356046,0.35604 0.08856,0.86972 -0.452893,0.86972 -0.215491,0 -0.872314,0.24514 -1.459607,0.54475 -1.218733,0.62175 -1.839141,1.78236 -1.790409,3.34935 0.02941,0.94558 0.04314,0.92783 0.2494,-0.32223 0.166985,-1.01203 0.416238,-1.48945 1.060651,-2.03156 z m -9.620897,2.52718 c -0.279648,-0.27964 0.570282,-1.6434 1.412105,-2.26578 0.438108,-0.32391 0.742398,-0.73006 0.676202,-0.90257 -0.0662,-0.1725 0.138933,-0.54673 0.455843,-0.83162 0.908674,-0.81684 1.123817,-0.86438 1.114262,-0.24619 -0.0049,0.31655 0.110168,0.60531 0.255689,0.64169 0.145521,0.0364 0.265961,-0.0232 0.267645,-0.13229 0.0062,-0.40236 0.728826,-1.91823 0.914421,-1.91823 0.226872,0 -0.571826,2.45673 -0.96223,2.95975 -0.575506,0.74151 -0.667162,1.11317 -0.141301,0.57297 0.304279,-0.31257 0.675534,-0.61023 0.82501,-0.66146 0.149477,-0.0512 0.30965,-0.34362 0.355941,-0.64976 0.137852,-0.9117 0.947333,-1.95648 1.385554,-1.78832 0.291657,0.11192 0.355917,0.40395 0.245565,1.11597 -0.104559,0.67464 -0.02029,1.12337 0.280498,1.49356 0.425836,0.52408 0.427388,0.52381 0.161685,-0.0284 -0.330071,-0.68597 0.07407,-2.32421 0.801508,-3.24899 0.711498,-0.904525 0.317886,-1.108831 -0.439947,-0.22836 -0.672181,0.78096 -0.916224,0.89781 -0.916224,0.43872 0,-0.329994 0.847031,-1.505569 1.930101,-2.678739 0.406712,-0.440546 0.693546,-0.846923 0.637409,-0.903061 -0.230176,-0.230176 -1.894192,1.140688 -2.027117,1.669998 -0.187155,0.745253 -1.438628,1.716352 -1.956028,1.517803 -0.243622,-0.09349 -0.541147,0.06396 -0.748607,0.396159 -0.189364,0.30322 -0.456996,0.55131 -0.594737,0.55131 -0.137742,0 0.09177,-0.35719 0.51002,-0.79375 1.000298,-1.044088 0.412431,-1.023551 -0.784543,0.0274 -0.514387,0.45163 -0.937896,0.71953 -0.941131,0.59531 -0.01236,-0.47456 -1.040981,1.12378 -1.046575,1.62624 -0.0032,0.29104 -0.407373,0.84951 -0.898073,1.24104 -1.024292,0.81728 -1.550372,2.59542 -0.767882,2.59542 0.08843,0 0.08615,-0.0746 -0.0051,-0.16584 z m 5.359794,-1.6201 c 0.0052,-0.1819 -0.10649,-0.33073 -0.248274,-0.33073 -0.292921,0 -1.065805,1.38409 -1.063813,1.90509 0.0016,0.43254 1.299138,-1.1243 1.312087,-1.57436 z m 5.070716,1.32292 c 0.144355,-1.9591 0.140432,-1.98573 -0.219952,-1.49288 -0.188833,0.25825 -0.343333,0.61564 -0.343333,0.79421 0,0.17856 -0.07227,0.51299 -0.160599,0.74318 -0.105386,0.27463 -0.01443,0.41851 0.264584,0.41851 0.23385,0 0.440535,-0.20836 0.4593,-0.46302 z m 12.643233,-0.7276 -0.01455,-0.52917 -0.227391,0.52917 c -0.125066,0.29104 -0.233936,0.70776 -0.241935,0.92604 -0.01294,0.35277 0.01394,0.35277 0.241935,0 0.141066,-0.21828 0.249936,-0.635 0.241935,-0.92604 z m -12.887259,-1.30498 c 0.316172,-0.22145 0.507559,-0.46994 0.425305,-0.5522 -0.265021,-0.26502 -1.539121,1.48144 -1.514451,2.07591 0.01767,0.42568 0.08755,0.35477 0.269076,-0.27302 0.134867,-0.46643 0.503899,-1.02923 0.82007,-1.25069 z m 20.803181,1.36024 c 0.62892,-0.30613 1.89631,-2.19895 1.89631,-2.8321 0,-0.19201 -0.28315,0.17564 -0.62923,0.81699 -0.34608,0.64135 -0.77165,1.13338 -0.94571,1.09339 -0.17406,-0.04 -0.24941,0.0358 -0.16743,0.16846 0.082,0.13264 -0.003,0.36695 -0.18778,0.5207 -0.65045,0.53983 -1.26976,0.14825 -1.89297,-1.19689 -0.34123,-0.73651 -0.74801,-1.41796 -0.90397,-1.51435 -0.15595,-0.0964 -0.0517,0.33551 0.23158,0.95977 0.28333,0.62426 0.51775,1.46471 0.52095,1.86766 0.005,0.66028 0.0777,0.71705 0.73341,0.57473 0.40019,-0.0869 1.00537,-0.29312 1.34484,-0.45836 z m 1.89631,-1.0463 c 0,-0.46963 -0.0727,-0.4416 -0.59048,0.22775 -0.32476,0.41981 -0.69542,0.80746 -0.82368,0.86146 -0.12827,0.054 -0.0709,0.20214 0.12745,0.32921 0.44648,0.28599 1.28671,-0.64025 1.28671,-1.41842 z m -8.06703,0.34216 c -0.181662,-0.82711 -1.314169,-2.39383 -1.730382,-2.39383 -0.123955,0 -0.05457,0.32742 0.15418,0.7276 0.208756,0.40018 0.380288,0.87643 0.381185,1.05833 7.94e-4,0.18191 0.123246,0.33073 0.271886,0.33073 0.148641,0 0.406107,0.29816 0.572146,0.66258 0.392462,0.86136 0.579675,0.65579 0.350985,-0.38541 z m -24.913423,-0.26444 c 0.650731,-0.98332 0.578866,-1.61826 -0.133343,-1.17809 -0.189256,0.11697 -0.233644,0.0726 -0.116677,-0.11667 0.103833,-0.16801 0.07626,-0.30547 -0.06126,-0.30547 -0.294408,0 -1.21136,1.83302 -1.015119,2.02926 0.07381,0.0738 0.329686,-0.20376 0.568618,-0.6168 0.238932,-0.41305 0.353804,-0.51287 0.255271,-0.22183 -0.604642,1.78596 -0.477107,1.88991 0.502514,0.4096 z m 22.661703,0.25654 c 0,-0.36047 -1.33815,-1.85677 -1.660521,-1.85677 -0.159811,0 0.02937,0.33394 0.420395,0.74209 0.391028,0.40814 0.710959,0.95095 0.710959,1.20624 0,0.25528 0.119063,0.39057 0.264584,0.30063 0.14552,-0.0899 0.264583,-0.26642 0.264583,-0.39219 z m 8.11331,0.0829 c -0.0973,-0.0973 0.0204,-0.39499 0.2615,-0.66146 0.24115,-0.26647 0.34589,-0.48449 0.23276,-0.48449 -0.11313,0 -0.0586,-0.17728 0.12126,-0.39396 0.17983,-0.21668 0.43253,-0.32872 0.56157,-0.24897 0.37268,0.23033 0.27189,-1.58619 -0.11756,-2.11879 -0.31514,-0.43098 -0.35672,-0.36519 -0.39556,0.62582 -0.0239,0.60908 -0.15886,1.32318 -0.29998,1.58688 -0.14113,0.26369 -0.18721,0.54884 -0.1024,0.63365 0.0848,0.0848 -0.17629,0.23715 -0.58023,0.33853 -0.69023,0.17324 -0.70499,0.20586 -0.24523,0.54205 0.5091,0.37226 0.87158,0.48845 0.56387,0.18074 z m -24.397781,-1.29472 c -0.06637,-0.51839 -0.0011,-1.166 0.145115,-1.43915 0.151549,-0.28317 0.164689,-0.55911 0.03057,-0.642 -0.381477,-0.23577 -0.954194,1.97958 -0.696187,2.69294 0.260106,0.71917 0.634558,0.27905 0.520503,-0.61179 z m 5.965721,0.28107 c 0.530445,-0.39135 1.253718,-0.66146 1.771195,-0.66146 0.601068,0 0.874639,-0.12414 0.874639,-0.39688 0,-0.47509 -0.408927,-0.49932 -1.614164,-0.0956 -0.917735,0.30738 -2.090003,1.20311 -2.090003,1.59697 0,0.31613 0.06795,0.28769 1.058333,-0.44299 z m 13.75833,-0.18521 c 0,-0.54533 -0.0911,-0.75559 -0.25591,-0.59075 -0.14076,0.14075 -0.1864,0.52175 -0.10144,0.84666 0.21793,0.83335 0.35735,0.7335 0.35735,-0.25591 z m -17.089393,-0.1854 c 0.297923,-0.3292 0.35778,-0.56306 0.173299,-0.67708 -0.375901,-0.23232 -0.359379,-1.88423 0.02608,-2.607729 0.272296,-0.511089 0.259816,-0.538267 -0.10792,-0.23502 -1.179186,0.972389 -1.729737,4.022729 -0.726058,4.022729 0.09871,0 0.384282,-0.22631 0.634596,-0.5029 z m 21.720483,-0.29228 c 0.20908,-0.33829 -0.0348,-0.33444 -0.67973,0.0107 -0.28147,0.15065 -0.51177,0.39296 -0.51177,0.53848 0,0.30387 0.92889,-0.12429 1.1915,-0.54921 z m -5.793253,-1.43762 c -0.387919,-0.95455 -1.222658,-1.17408 -2.151113,-0.56573 -0.350269,0.2295 -0.730339,0.41463 -0.844599,0.41139 -0.348436,-0.01 1.090498,-1.04026 1.461515,-1.04656 0.190489,-0.003 0.273029,-0.124512 0.183422,-0.269499 -0.185388,-0.299964 -1.436274,0.263929 -1.944853,0.876729 -0.364777,0.43953 0.05956,0.70658 1.398388,0.88007 0.427379,0.0554 1.008446,0.34906 1.291259,0.65262 0.689674,0.74028 1.057074,0.17096 0.605981,-0.93902 z m 4.705733,0.75595 c 0.28949,-0.75439 0.16839,-1.01584 -0.22786,-0.49195 -0.21365,0.28247 -0.39225,0.60289 -0.39688,0.71203 -0.0157,0.36973 0.46313,0.20106 0.62474,-0.22008 z m 1.48352,-1.28973 c 0,-0.46319 -0.4124,-0.54682 -0.66679,-0.13522 -0.0929,0.15026 -0.2783,0.65486 -0.41209,1.12134 l -0.24325,0.84815 0.66107,-0.71292 c 0.36358,-0.39211 0.66106,-0.89672 0.66106,-1.12135 z m -29.748369,0.22318 c 0.0424,-0.5344 0.278133,-1.163023 0.523846,-1.396934 0.41496,-0.395029 0.425724,-0.384168 0.151261,0.152625 -0.16252,0.317859 -0.29549,0.768979 -0.29549,1.002489 0,0.35121 0.102872,0.32875 0.595312,-0.12995 0.706586,-0.658182 0.931311,-1.982117 0.294998,-1.737941 -0.222433,0.08535 -0.519823,0.155192 -0.660868,0.155192 -0.351127,0 -1.023192,1.674359 -1.023192,2.549139 0,1.02338 0.322493,0.56033 0.414133,-0.59462 z m 8.978574,1.01799 c 0.297188,-0.21834 0.45127,-3.237093 0.165227,-3.237093 -0.359576,0 -1.091268,1.550073 -1.091268,2.311833 0,1.03634 0.328326,1.3644 0.926041,0.92526 z m -9.563354,-1.64959 0.444573,-1.190628 -0.533838,0.624624 c -0.293611,0.343544 -0.533838,0.928934 -0.533838,1.300864 0,0.83609 0.06525,0.75913 0.623103,-0.73486 z m 10.796403,0.0271 c -0.06231,-0.89867 0.04846,-1.507296 0.361159,-1.984542 0.248065,-0.378595 0.328118,-0.688354 0.177897,-0.688354 -0.329584,0 -1.267268,2.350766 -1.160922,2.910416 0.29469,1.55082 0.734217,1.38294 0.621866,-0.23752 z m 3.082962,0.33488 c 0.04907,-1.305234 0.264505,-1.933341 1.000079,-2.915735 0.474906,-0.634261 0.539329,-0.86667 0.268993,-0.970407 -0.372193,-0.142824 -1.874954,1.082102 -1.889083,1.539824 -0.0045,0.145521 -0.09871,0.630853 -0.209364,1.078515 -0.205264,0.830383 0.149225,2.228773 0.564987,2.228773 0.125544,0 0.244518,-0.43243 0.264388,-0.96097 z m 2.926958,0.79561 c 0.680355,-0.13607 0.823852,-0.2884 0.810052,-0.8599 l -0.01677,-0.694528 -0.288114,0.661458 c -0.233252,0.53551 -0.30902,0.57487 -0.397905,0.20674 -0.190122,-0.78741 1.73128,-2.482806 3.497686,-3.086262 1.166346,-0.398459 1.392216,-0.544688 0.851397,-0.551199 -0.943741,-0.01136 -2.601396,0.670337 -3.055446,1.256531 -0.321768,0.415413 -0.344469,0.404354 -0.264584,-0.128889 0.04806,-0.320808 -0.0019,-0.588699 -0.111055,-0.595312 -0.10914,-0.0066 -0.305852,-0.01203 -0.437138,-0.01203 -0.35255,0 -0.819632,1.519789 -0.819632,2.666911 0,0.82714 -0.103127,1.02031 -0.595313,1.11511 -0.327422,0.0631 -0.461367,0.13088 -0.297656,0.1507 0.163711,0.0198 0.669726,-0.0384 1.124479,-0.12934 z m 1.661768,-1.02796 c -0.113239,-0.42342 -0.273916,-0.65556 -0.35706,-0.515869 -0.164892,0.277039 0.2532,1.595469 0.445091,1.403579 0.06482,-0.0648 0.02521,-0.46429 -0.08803,-0.88771 z m 8.160888,0.40888 c 0,-0.28592 -0.23812,-0.6473 -0.52917,-0.80306 -0.62673,-0.335414 -0.68987,-0.122901 -0.12986,0.43711 0.21962,0.21962 0.33166,0.50877 0.24897,0.64256 -0.0827,0.13379 -0.0242,0.24325 0.12986,0.24325 0.15411,0 0.2802,-0.23394 0.2802,-0.51986 z m 1.31887,-0.985879 c 0.002,-0.464354 -0.0853,-0.89897 -0.19439,-0.965813 -0.10914,-0.06684 -0.19906,0.451543 -0.19981,1.151972 -8e-4,0.70042 0.0867,1.13504 0.19438,0.96581 0.10767,-0.16923 0.19759,-0.68761 0.19982,-1.151969 z M 90.974008,99.604273 c -0.06655,-0.254661 -0.121,-0.0463 -0.121,0.463017 0,0.50933 0.05445,0.71769 0.121,0.46302 0.06655,-0.25466 0.06655,-0.671376 0,-0.926037 z m -2.6019,-0.198437 c 0.25342,-0.952209 0.24293,-1.006833 -0.104619,-0.544743 -0.212455,0.282475 -0.386282,0.808334 -0.386282,1.168577 0,0.8591 0.145413,0.67431 0.490901,-0.623834 z m 3.843404,-0.935029 c 0.111569,-0.213338 0.01543,-0.156773 -0.213643,0.125702 -0.229072,0.282475 -0.402803,0.877788 -0.386069,1.322917 0.03026,0.804994 0.03141,0.804324 0.213642,-0.125702 0.100769,-0.514266 0.2745,-1.109578 0.38607,-1.322917 z M 78.785478,98.81358 c 0.05746,-0.538975 0.01328,-0.624078 -0.171914,-0.331153 -0.282052,0.446118 -0.351842,1.502964 -0.08139,1.232513 0.09678,-0.09678 0.210768,-0.502393 0.253304,-0.90136 z m 2.563226,-0.01395 -0.579378,-0.08789 0.579378,-0.682685 c 0.852053,-1.003979 1.866068,-1.930519 2.112783,-1.930519 0.118742,0 -0.118166,0.303535 -0.526463,0.674523 l -0.742358,0.674524 1.155958,-0.563669 c 0.828399,-0.403944 1.237008,-0.48262 1.441979,-0.277649 0.359813,0.359813 0.796209,0.376024 0.577062,0.02144 -0.09576,-0.154948 0.180991,-0.264583 0.667892,-0.264583 0.548241,0 0.793417,-0.112644 0.719854,-0.330729 -0.06746,-0.2 -0.589043,-0.330729 -1.319534,-0.330729 -0.664386,0 -1.142129,0.106661 -1.06165,0.237025 0.08106,0.131306 -0.151158,0.162362 -0.520638,0.06963 -0.757905,-0.190221 -2.084258,0.581654 -2.905419,1.690818 -0.626221,0.845852 -0.407709,1.581402 0.401687,1.352153 l 0.578225,-0.163773 -0.579378,-0.08788 z m 3.622086,-0.30044 c 0,-0.134851 -0.208359,-0.299633 -0.46302,-0.366183 -0.311371,-0.08137 -0.246378,-0.129725 0.198437,-0.14764 0.363802,-0.01465 0.838651,0.08539 1.055219,0.222316 0.561248,0.354851 1.151733,-0.733739 0.66307,-1.222402 -0.273624,-0.273624 -0.555834,-0.232645 -1.49092,0.216487 -1.721666,0.826935 -2.07265,1.542605 -0.756535,1.542605 0.436562,0 0.793749,-0.110332 0.793749,-0.245183 z m 5.292429,-1.871484 c 0.145102,0 0.263821,-0.119062 0.263821,-0.264583 0,-0.589931 -0.932269,-0.205033 -1.762343,0.727604 -1.214204,1.364229 -1.110532,1.655756 0.175606,0.493809 0.582502,-0.526256 1.177814,-0.95683 1.322916,-0.95683 z m 1.455549,-0.693369 c -0.261764,-0.191407 -0.595495,-0.274122 -0.741622,-0.18381 -0.1558,0.09629 -0.06884,0.308139 0.21025,0.512216 0.261764,0.191407 0.595494,0.274121 0.741622,0.18381 0.1558,-0.09629 0.06884,-0.308139 -0.21025,-0.512216 z m 0.20237,-0.803097 c -0.179131,-0.07248 -0.536319,-0.07689 -0.79375,-0.0098 -0.257431,0.06708 -0.110869,0.126381 0.325694,0.131772 0.436562,0.0054 0.647188,-0.04949 0.468056,-0.121969 z"
         id="path2258" />
    </g>
  </g>
</svg>
